<svg class="track-map" viewBox="0 0 1000 728" xmlns="http://www.w3.org/2000/svg" role="img" aria-labelledby="tmT tmD">
<title id="tmT">Hurricane tracks across Hispaniola, 1851 to 2024</title>
<desc id="tmD">Every Atlantic storm track from the NOAA HURDAT2 database, drawn only along the stretches where the system was at hurricane strength. Tracks that came within 150 kilometres of the Dominican north coast are highlighted and coloured by category. The dashed circle marks a 50 kilometre radius around that stretch of coast.</desc>
<defs><linearGradient id="tmSea" x1="0" y1="0" x2="0.3" y2="1"><stop offset="0%" stop-color="#0D2434"/><stop offset="100%" stop-color="#06111A"/></linearGradient></defs>
<rect width="1000" height="728" fill="url(#tmSea)"/>
<g fill="none" stroke="#EDE6D6" stroke-opacity="0.16" stroke-width="1" stroke-linejoin="round" stroke-linecap="round">
<path d="M 941.2 603.2 L 784.3 561.6 L 617.6 520.0 L 441.2 478.4"/>
<path d="M 490.2 187.2 L 362.7 156.0 L 254.9 135.2 L 156.9 114.4 L 68.6 93.6 L -49.0 83.2"/>
<path d="M 1029.4 582.4 L 931.4 551.2"/>
<path d="M 176.5 624.0 L 58.8 613.6"/>
<path d="M 696.1 728.0 L 519.6 728.0 L 343.1 717.6 L 166.7 707.2 L -19.6 665.6"/>
<path d="M 19.6 572.0 L 49.0 499.2 L 58.8 405.6 L 78.4 301.6 L 117.6 187.2 L 147.1 83.2 L 176.5 -20.8"/>
<path d="M 588.2 790.4 L 421.6 769.6 L 254.9 748.8 L 117.6 728.0 L 0.0 717.6"/>
<path d="M 990.2 655.2 L 794.1 655.2 L 598.0 624.0 L 451.0 613.6 L 313.7 582.4 L 196.1 551.2 L 58.8 520.0"/>
<path d="M 539.2 780.0 L 392.2 759.2 L 196.1 738.4 L -19.6 707.2"/>
<path d="M 1049.0 343.2 L 911.8 291.2 L 784.3 249.6 L 647.1 218.4 L 509.8 187.2 L 362.7 145.6 L 196.1 104.0 L 58.8 52.0 L -49.0 -41.6"/>
<path d="M 960.8 208.0 L 833.3 114.4 L 715.7 31.2 L 598.0 -52.0"/>
<path d="M 892.2 488.8 L 735.3 499.2 L 588.2 499.2"/>
<path d="M 1009.8 426.4 L 892.2 364.0 L 794.1 312.0 L 686.3 239.2 L 588.2 187.2 L 451.0 104.0 L 323.5 52.0 L 205.9 -20.8"/>
<path d="M 647.1 707.2 L 539.2 665.6 L 441.2 634.4 L 323.5 582.4 L 254.9 520.0 L 166.7 416.0 L 107.8 343.2 L 9.8 291.2"/>
<path d="M 803.9 780.0 L 705.9 748.8 L 617.6 717.6 L 539.2 686.4 L 421.6 655.2 L 343.1 613.6 L 254.9 572.0 L 107.8 499.2 L -39.2 374.4"/>
<path d="M 941.2 509.6 L 784.3 488.8 L 627.5 457.6"/>
<path d="M 617.6 728.0 L 539.2 655.2 L 441.2 572.0 L 343.1 499.2 M 166.7 364.0 L 98.0 312.0"/>
<path d="M 343.1 624.0 L 333.3 561.6 L 323.5 520.0 M 274.5 218.4 L 264.7 187.2 L 254.9 145.6 L 245.1 93.6 L 225.5 62.4 L 215.7 31.2 L 205.9 -20.8 L 205.9 -62.4"/>
<path d="M 225.5 790.4 L 156.9 748.8 L 29.4 676.0"/>
<path d="M 637.3 145.6 L 549.0 83.2 L 470.6 0.0"/>
<path d="M 303.9 104.0 L 215.7 83.2 L 127.5 52.0 L 49.0 52.0 L -49.0 52.0"/>
<path d="M 990.2 707.2 L 862.7 655.2 L 715.7 582.4 L 558.8 520.0 L 402.0 447.2 L 294.1 343.2 L 186.3 239.2 L 78.4 166.4 L 9.8 104.0 L -39.2 52.0"/>
<path d="M 0.0 405.6 L 9.8 353.6 L 19.6 312.0 M 58.8 31.2 L 58.8 0.0 L 58.8 -20.8 L 58.8 -52.0"/>
<path d="M 921.6 759.2 L 813.7 696.8 L 715.7 634.4 L 617.6 582.4 L 529.4 530.4 L 421.6 488.8 L 294.1 457.6 L 166.7 436.8 L 39.2 405.6"/>
<path d="M 235.3 -31.2 L 294.1 -41.6"/>
<path d="M 1049.0 260.0 L 931.4 228.8 L 833.3 208.0 L 754.9 197.6 L 696.1 187.2 L 627.5 176.8 L 539.2 166.4 L 421.6 145.6 L 313.7 124.8 L 196.1 114.4 L 78.4 93.6 L -29.4 72.8"/>
<path d="M 1039.2 447.2 L 941.2 374.4 L 862.7 322.4 L 794.1 260.0 L 735.3 197.6 L 696.1 135.2 L 676.5 62.4 L 676.5 -31.2"/>
<path d="M 1039.2 676.0 L 931.4 624.0 L 833.3 572.0 L 745.1 520.0 L 705.9 447.2 L 686.3 353.6 L 656.9 280.8 L 598.0 208.0 L 529.4 156.0 L 451.0 124.8 L 382.4 93.6 L 294.1 52.0 L 205.9 10.4 L 107.8 -31.2"/>
<path d="M 990.2 20.8 L 921.6 -41.6"/>
<path d="M 1000.0 291.2 L 980.4 176.8 L 960.8 62.4 L 941.2 -41.6"/>
<path d="M 1049.0 20.8 L 951.0 10.4 L 843.1 0.0 L 735.3 -20.8 L 617.6 -52.0"/>
<path d="M 990.2 707.2 L 872.5 665.6 L 754.9 624.0 L 617.6 561.6 L 451.0 488.8 L 284.3 436.8 L 127.5 374.4 L -19.6 322.4"/>
<path d="M 1049.0 509.6 L 1019.6 447.2 L 990.2 384.8 L 960.8 291.2 L 941.2 218.4 L 921.6 135.2 L 892.2 52.0 L 892.2 -10.4"/>
<path d="M 676.5 780.0 L 529.4 748.8 L 382.4 728.0 L 225.5 686.4 L 49.0 634.4"/>
<path d="M 1009.8 197.6 L 921.6 145.6 L 823.5 93.6 L 715.7 31.2 L 607.8 -41.6"/>
<path d="M 1029.4 114.4 L 941.2 52.0 L 843.1 -20.8"/>
<path d="M 598.0 624.0 L 470.6 488.8"/>
<path d="M 1000.0 665.6 L 872.5 665.6 L 745.1 676.0 L 647.1 665.6 L 549.0 655.2 L 451.0 624.0 L 352.9 572.0 M 470.6 41.6 L 519.6 -62.4"/>
<path d="M 970.6 312.0 L 862.7 260.0 L 774.5 197.6 L 676.5 135.2 L 607.8 52.0 L 588.2 -20.8"/>
<path d="M 725.5 769.6 L 549.0 728.0 L 352.9 665.6 L 176.5 603.2 L 0.0 551.2"/>
<path d="M 1000.0 353.6 L 941.2 332.8 L 872.5 312.0 L 784.3 280.8 L 715.7 249.6 L 647.1 218.4 L 588.2 176.8 L 529.4 145.6 L 470.6 93.6 L 411.8 52.0 L 352.9 -10.4 L 284.3 -52.0"/>
<path d="M 1029.4 676.0 L 911.8 676.0 L 803.9 676.0 L 696.1 655.2 L 598.0 644.8 L 500.0 624.0 L 441.2 592.8 L 392.2 561.6 L 333.3 509.6 L 284.3 468.0 M 186.3 405.6 L 137.3 343.2 L 107.8 312.0 L 58.8 270.4 L 19.6 208.0 L -29.4 166.4"/>
<path d="M 970.6 592.8 L 794.1 561.6 L 637.3 530.4 L 480.4 488.8 L 323.5 436.8 L 156.9 322.4 L -19.6 280.8"/>
<path d="M 1049.0 572.0 L 941.2 572.0 L 833.3 561.6 L 725.5 561.6 L 578.4 561.6 L 431.4 551.2 L 264.7 540.8 L 88.2 520.0"/>
<path d="M -9.8 416.0 L -39.2 426.4"/>
<path d="M 902.0 696.8 L 705.9 665.6 L 509.8 624.0 L 313.7 582.4 L 117.6 540.8"/>
<path d="M 696.1 135.2 L 686.3 93.6 L 676.5 52.0 L 666.7 10.4 L 647.1 -20.8 L 627.5 -52.0"/>
<path d="M 294.1 790.4 L 156.9 728.0 L 0.0 644.8"/>
<path d="M 1019.6 540.8 L 892.2 499.2 L 745.1 457.6"/>
<path d="M 941.2 769.6 L 735.3 759.2 L 529.4 738.4 L 333.3 728.0"/>
<path d="M 990.2 52.0 L 921.6 -20.8"/>
<path d="M 931.4 748.8 L 754.9 707.2 L 558.8 676.0 L 392.2 634.4 L 245.1 592.8 L 107.8 551.2 L -29.4 509.6"/>
<path d="M 156.9 0.0 L 107.8 -20.8 L 49.0 -41.6 L -19.6 -52.0"/>
<path d="M 843.1 759.2 L 784.3 696.8 L 745.1 634.4 L 715.7 561.6 L 696.1 488.8 L 686.3 416.0 L 676.5 332.8 L 666.7 239.2 L 647.1 145.6 L 627.5 52.0 L 627.5 -52.0"/>
<path d="M 1049.0 384.8 L 951.0 312.0 L 862.7 249.6 L 823.5 187.2 L 813.7 114.4 L 803.9 52.0 L 794.1 -20.8"/>
<path d="M 1049.0 468.0 L 1000.0 416.0 L 951.0 364.0 L 911.8 312.0 L 872.5 260.0 L 843.1 208.0 L 823.5 176.8 L 803.9 156.0 L 784.3 145.6 L 764.7 124.8 L 745.1 104.0 L 735.3 72.8 L 725.5 41.6 L 715.7 0.0 L 705.9 -62.4"/>
<path d="M 9.8 93.6 L 88.2 41.6 L 235.3 -41.6"/>
<path d="M 1039.2 260.0 L 941.2 239.2 L 843.1 218.4 L 745.1 208.0 L 617.6 176.8 L 451.0 135.2 L 284.3 93.6 L 127.5 52.0 L -19.6 -20.8"/>
<path d="M 647.1 707.2 L 549.0 676.0 L 451.0 634.4 L 352.9 592.8 L 254.9 551.2 L 166.7 520.0 L 68.6 499.2 L -29.4 457.6"/>
<path d="M 1000.0 468.0 L 882.4 468.0 L 754.9 468.0"/>
<path d="M 578.4 114.4 L 519.6 104.0 L 451.0 83.2 L 402.0 62.4 L 362.7 31.2 L 333.3 0.0 L 294.1 -52.0"/>
<path d="M 1039.2 520.0 L 921.6 499.2 L 784.3 499.2 L 656.9 509.6 L 509.8 520.0 L 343.1 520.0"/>
<path d="M 931.4 249.6 L 764.7 187.2 L 598.0 135.2 L 460.8 114.4 L 343.1 83.2 L 235.3 62.4 L 127.5 52.0 L -9.8 41.6"/>
<path d="M 990.2 260.0 L 843.1 197.6 L 725.5 124.8 L 607.8 72.8 L 480.4 31.2 L 333.3 -20.8"/>
<path d="M 1009.8 166.4 L 941.2 124.8 L 872.5 83.2 L 833.3 52.0 L 803.9 20.8 L 794.1 -20.8"/>
<path d="M -49.0 384.8 L -49.0 343.2"/>
<path d="M 990.2 20.8 L 794.1 -52.0"/>
<path d="M 803.9 114.4 L 754.9 72.8 L 735.3 -10.4"/>
<path d="M 852.9 124.8 L 725.5 83.2 L 598.0 41.6 L 490.2 -20.8"/>
<path d="M 823.5 -41.6 L 656.9 -62.4"/>
<path d="M 892.2 759.2 L 843.1 676.0 L 794.1 572.0 L 745.1 447.2 L 705.9 312.0 L 696.1 156.0 L 696.1 -10.4"/>
<path d="M 764.7 780.0 L 647.1 759.2 L 539.2 748.8 L 431.4 738.4 L 333.3 707.2 L 235.3 655.2 L 137.3 582.4 L 29.4 530.4"/>
<path d="M 1039.2 0.0 L 911.8 -62.4"/>
<path d="M 1000.0 166.4 L 902.0 104.0 L 803.9 41.6 L 705.9 -20.8"/>
<path d="M 588.2 93.6 L 529.4 20.8"/>
<path d="M 1049.0 41.6 L 882.4 -31.2"/>
<path d="M 813.7 260.0 L 686.3 176.8 L 568.6 93.6 L 441.2 0.0 L 313.7 -62.4"/>
<path d="M 882.4 208.0 L 862.7 93.6"/>
<path d="M 1009.8 686.4 L 882.4 613.6 L 784.3 572.0 L 686.3 540.8"/>
<path d="M 1049.0 249.6 L 1039.2 197.6 L 1029.4 145.6 L 1019.6 93.6 L 1000.0 62.4 L 970.6 31.2 L 941.2 -10.4 L 902.0 -41.6"/>
<path d="M 872.5 738.4 L 686.3 707.2 L 529.4 696.8 L 382.4 686.4 L 245.1 665.6 L 98.0 613.6"/>
<path d="M 862.7 218.4 L 745.1 114.4 L 637.3 10.4"/>
<path d="M 274.5 10.4 L 205.9 -62.4"/>
<path d="M 9.8 769.6 L 29.4 738.4 L 49.0 686.4 L 68.6 634.4 L 88.2 582.4 L 127.5 520.0 L 137.3 488.8 L 156.9 457.6 L 186.3 405.6 L 215.7 353.6 L 245.1 301.6 L 245.1 228.8 L 245.1 208.0 L 225.5 135.2 L 205.9 31.2"/>
<path d="M 1019.6 270.4 L 902.0 187.2 L 784.3 104.0 L 666.7 20.8"/>
<path d="M 980.4 20.8 L 843.1 -31.2"/>
<path d="M 186.3 790.4 L 264.7 707.2 L 323.5 613.6 L 382.4 520.0 L 382.4 509.6"/>
<path d="M 588.2 -10.4 L 705.9 41.6 L 833.3 83.2 L 970.6 83.2"/>
<path d="M 823.5 728.0 L 647.1 696.8 L 480.4 644.8 L 343.1 572.0 L 215.7 499.2 L 78.4 405.6"/>
<path d="M 960.8 343.2 L 892.2 301.6 L 794.1 249.6 L 715.7 187.2 L 656.9 156.0 L 578.4 124.8 L 500.0 104.0 L 421.6 93.6 L 323.5 93.6 L 215.7 83.2 L 127.5 83.2 L 29.4 72.8 L -19.6 62.4 L -49.0 62.4"/>
<path d="M 480.4 780.0 L 411.8 738.4 L 352.9 676.0 L 303.9 603.2 L 264.7 509.6 L 254.9 499.2 L 176.5 436.8 L 117.6 374.4 L 68.6 312.0 L -9.8 249.6 M 19.6 176.8 L 127.5 135.2 L 264.7 72.8 L 392.2 -31.2"/>
<path d="M 1039.2 696.8 L 882.4 676.0 L 745.1 655.2 L 607.8 644.8 L 490.2 624.0 L 362.7 592.8 L 235.3 520.0 L 186.3 499.2 L 117.6 457.6 L 9.8 416.0"/>
<path d="M 941.2 52.0 L 882.4 72.8 L 803.9 83.2 L 745.1 72.8 L 696.1 52.0 L 617.6 41.6 L 529.4 20.8 L 460.8 -41.6"/>
<path d="M 794.1 208.0 L 656.9 135.2 L 549.0 83.2 L 509.8 31.2 L 480.4 -31.2"/>
<path d="M 970.6 644.8 L 823.5 624.0 L 696.1 613.6 L 578.4 603.2 L 451.0 572.0 L 411.8 551.2 L 323.5 509.6 L 294.1 499.2 L 205.9 447.2 L 107.8 395.2 L 19.6 332.8 L -9.8 312.0"/>
<path d="M 1019.6 748.8 L 931.4 696.8 L 862.7 655.2 L 784.3 603.2 L 715.7 572.0 L 647.1 551.2 L 558.8 540.8 L 480.4 551.2 L 392.2 572.0 L 303.9 572.0 L 225.5 572.0"/>
<path d="M 686.3 790.4 L 500.0 738.4 L 323.5 676.0 L 176.5 540.8 L -29.4 488.8"/>
<path d="M 833.3 135.2 L 774.5 41.6 L 686.3 -62.4"/>
<path d="M 990.2 156.0 L 862.7 114.4 L 754.9 52.0 L 647.1 -20.8"/>
<path d="M 1009.8 197.6 L 941.2 239.2 L 902.0 270.4 L 813.7 239.2 L 666.7 197.6 L 549.0 166.4 L 372.5 145.6 L 225.5 145.6 L 49.0 114.4"/>
<path d="M 862.7 738.4 L 745.1 707.2 L 598.0 717.6 L 480.4 707.2 L 352.9 644.8 L 186.3 592.8 L 29.4 561.6"/>
<path d="M 990.2 499.2 L 980.4 488.8 L 902.0 405.6 L 862.7 343.2 L 813.7 239.2 L 745.1 145.6 L 686.3 41.6 L 617.6 -52.0"/>
<path d="M 1049.0 301.6 L 1000.0 239.2 L 941.2 176.8 L 882.4 104.0 L 823.5 20.8"/>
<path d="M 1019.6 468.0 L 960.8 416.0 L 902.0 343.2 L 843.1 270.4 L 833.3 239.2 L 794.1 187.2 L 725.5 104.0 L 666.7 10.4"/>
<path d="M 1049.0 457.6 L 931.4 374.4 L 774.5 280.8 L 607.8 166.4 L 441.2 52.0 L 294.1 -62.4"/>
<path d="M 951.0 10.4 L 833.3 -41.6"/>
<path d="M 970.6 -31.2 L 872.5 -62.4"/>
<path d="M 813.7 197.6 L 676.5 124.8 L 568.6 72.8 L 500.0 0.0 L 451.0 -41.6"/>
<path d="M 1019.6 20.8 L 921.6 0.0 L 803.9 -20.8 L 676.5 -41.6 L 549.0 -62.4"/>
<path d="M 647.1 780.0 L 784.3 738.4 L 892.2 686.4 L 990.2 644.8"/>
<path d="M 1000.0 436.8 L 872.5 395.2 L 735.3 364.0"/>
<path d="M 333.3 634.4 L 156.9 634.4 L 29.4 634.4"/>
<path d="M 1039.2 280.8 L 902.0 249.6 L 754.9 208.0 L 735.3 197.6 L 637.3 166.4 L 509.8 124.8 L 411.8 83.2 L 303.9 31.2 L 274.5 20.8 L 205.9 -20.8"/>
<path d="M 176.5 759.2 L 88.2 707.2 L -19.6 644.8"/>
<path d="M 715.7 457.6 L 696.1 457.6 L 647.1 436.8"/>
<path d="M 254.9 707.2 L 147.1 655.2 L 68.6 561.6 L -49.0 468.0"/>
<path d="M 745.1 790.4 L 598.0 738.4 L 451.0 717.6 L 294.1 686.4 L 127.5 644.8 L -39.2 613.6"/>
<path d="M 382.4 634.4 L 343.1 572.0 L 274.5 509.6"/>
<path d="M 313.7 72.8 L 323.5 124.8 L 284.3 166.4"/>
<path d="M 1049.0 20.8 L 911.8 62.4 L 774.5 114.4 L 647.1 156.0 L 519.6 187.2 L 392.2 197.6 L 274.5 208.0 L 235.3 208.0 L 156.9 208.0 L 39.2 197.6 L -9.8 197.6"/>
<path d="M 892.2 769.6 L 1019.6 655.2"/>
<path d="M 1009.8 353.6 L 902.0 291.2 L 794.1 218.4 L 705.9 145.6 L 607.8 52.0 L 500.0 -62.4"/>
<path d="M 39.2 551.2 L 88.2 447.2 L 156.9 343.2"/>
<path d="M 1019.6 104.0 L 980.4 41.6 L 960.8 -62.4"/>
<path d="M -39.2 312.0 L -39.2 301.6 L -9.8 218.4 L 9.8 135.2 L 29.4 -31.2"/>
<path d="M 990.2 228.8 L 921.6 135.2 L 843.1 52.0 L 774.5 -10.4"/>
<path d="M 225.5 -52.0 L 186.3 -10.4 L 137.3 0.0 L 117.6 10.4 L 88.2 0.0 L 78.4 -41.6 L 78.4 -62.4"/>
<path d="M 58.8 790.4 L 68.6 738.4 L 98.0 665.6 L 117.6 572.0 L 127.5 488.8 L 127.5 478.4 L 127.5 384.8 L 127.5 301.6 L 117.6 239.2 L 78.4 166.4 L 19.6 83.2 L -39.2 0.0"/>
<path d="M 1009.8 187.2 L 892.2 83.2 L 784.3 -31.2"/>
<path d="M 1029.4 478.4 L 970.6 395.2 L 911.8 312.0 L 852.9 208.0 L 803.9 104.0 L 745.1 20.8 L 666.7 -52.0"/>
<path d="M 892.2 -20.8 L 813.7 -52.0"/>
<path d="M 558.8 769.6 L 372.5 728.0 L 205.9 696.8 L 29.4 644.8"/>
<path d="M 823.5 322.4 L 745.1 197.6 L 676.5 72.8 L 627.5 -41.6"/>
<path d="M 490.2 166.4 L 441.2 156.0 L 382.4 156.0 L 284.3 197.6 L 196.1 228.8 L 156.9 260.0 L 117.6 280.8 L 107.8 291.2"/>
</g>
<g fill="#16374A" stroke="rgba(237,230,214,0.38)" stroke-width="1.2" stroke-linejoin="round">
<path d="M 376.7 342.2 L 377.6 345.0 L 377.9 346.9 L 377.8 348.5 L 377.7 351.2 L 378.1 353.6 L 380.9 360.1 L 382.0 368.3 L 382.0 372.9 L 380.9 375.3 L 380.3 375.9 L 379.1 379.0 L 378.1 379.8 L 375.5 381.3 L 374.9 382.0 L 375.3 384.0 L 377.1 386.5 L 377.5 386.9 L 380.7 390.3 L 387.1 393.4 L 388.3 394.0 L 387.9 400.2 L 387.4 401.9 L 386.1 403.8 L 382.8 406.2 L 381.3 407.5 L 378.4 411.7 L 374.1 416.4 L 372.9 417.2 L 367.8 418.6 L 366.1 419.7 L 366.4 421.5 L 368.2 421.2 L 370.6 420.4 L 372.9 420.5 L 373.8 421.2 L 375.2 424.2 L 376.1 425.2 L 378.3 427.3 L 379.1 428.2 L 379.6 430.2 L 379.7 434.4 L 380.5 438.5 L 380.4 440.4 L 379.9 442.3 L 379.2 444.1 L 378.0 446.0 L 376.7 447.2 L 374.0 448.8 L 373.4 449.2 L 371.8 450.9 L 369.7 454.4 L 368.5 455.8 L 364.7 457.1 L 357.3 455.7 L 353.7 456.5 L 352.0 457.7 L 352.8 459.4 L 361.7 468.6 L 362.3 469.6 L 362.6 471.2 L 362.1 471.7 L 361.3 472.2 L 361.0 473.3 L 361.6 475.2 L 363.0 476.0 L 366.8 477.0 L 367.7 477.8 L 369.2 480.0 L 370.0 480.9 L 373.7 483.4 L 378.9 485.4 L 380.3 486.3 L 381.2 487.1 L 380.3 489.4 L 375.9 497.1 L 375.1 499.1 L 374.8 501.1 L 375.0 502.1 L 376.0 505.1 L 376.3 506.2 L 376.2 508.0 L 376.4 511.0 L 376.1 512.8 L 374.9 515.9 L 373.3 514.8 L 366.4 505.8 L 363.4 503.1 L 360.0 500.9 L 352.3 498.2 L 349.1 496.6 L 345.9 495.3 L 342.1 495.3 L 334.3 496.6 L 324.1 496.5 L 309.8 496.7 L 302.1 498.1 L 300.1 497.1 L 298.9 496.6 L 298.4 497.1 L 299.1 501.1 L 298.1 502.1 L 297.0 502.1 L 294.3 501.1 L 292.8 500.8 L 281.3 501.9 L 278.9 501.7 L 279.1 502.2 L 279.4 503.4 L 279.6 503.8 L 278.1 503.7 L 277.6 503.6 L 276.9 503.1 L 274.1 504.8 L 268.7 504.3 L 266.1 505.3 L 263.5 503.8 L 260.0 502.4 L 256.3 501.4 L 246.0 500.3 L 243.4 500.4 L 242.6 500.3 L 239.7 498.4 L 238.9 498.1 L 225.9 496.0 L 220.0 496.6 L 219.1 496.4 L 219.6 495.0 L 220.9 494.5 L 224.5 494.5 L 224.5 493.9 L 217.9 493.2 L 210.0 493.2 L 207.7 493.9 L 204.5 495.8 L 203.3 496.0 L 202.5 495.6 L 201.7 493.7 L 201.0 493.1 L 199.7 493.9 L 199.0 495.9 L 198.2 497.5 L 196.9 496.7 L 196.3 496.7 L 195.1 497.5 L 194.2 496.9 L 193.7 495.6 L 194.2 493.9 L 192.8 494.3 L 191.6 497.0 L 190.2 498.1 L 190.3 496.7 L 190.6 495.5 L 191.5 493.1 L 190.8 493.7 L 189.7 495.2 L 188.9 496.0 L 188.2 495.5 L 187.2 495.3 L 186.8 495.9 L 186.9 496.7 L 182.6 500.2 L 175.6 503.5 L 173.8 505.3 L 172.1 508.1 L 176.2 512.5 L 176.8 514.2 L 177.3 516.2 L 177.1 517.0 L 175.8 517.3 L 169.3 517.3 L 168.3 517.1 L 167.4 516.7 L 166.7 516.0 L 166.3 514.4 L 160.0 505.3 L 159.0 504.7 L 158.3 504.1 L 158.1 503.5 L 157.9 503.1 L 156.1 501.3 L 146.6 494.3 L 144.9 493.4 L 141.9 492.9 L 140.6 492.4 L 139.5 491.6 L 139.1 490.6 L 138.9 489.5 L 138.3 489.2 L 137.5 489.1 L 136.5 488.9 L 133.9 487.9 L 133.1 487.4 L 132.5 488.1 L 130.6 487.5 L 128.6 488.3 L 126.6 489.6 L 124.4 490.3 L 122.6 489.9 L 120.4 489.0 L 118.5 487.9 L 117.7 487.0 L 116.8 485.9 L 113.1 484.0 L 112.3 482.1 L 112.1 480.1 L 111.5 478.6 L 108.9 475.4 L 112.3 470.3 L 112.0 469.9 L 111.6 468.9 L 113.4 467.6 L 114.5 462.8 L 116.0 461.7 L 116.3 461.2 L 116.1 460.0 L 115.7 458.7 L 115.3 457.9 L 115.1 456.8 L 115.8 455.8 L 119.2 453.8 L 123.5 452.1 L 125.4 451.7 L 127.6 452.3 L 128.6 452.3 L 129.0 451.4 L 129.5 450.7 L 130.6 450.4 L 131.8 450.3 L 137.3 450.6 L 141.2 451.5 L 154.0 457.2 L 159.7 457.5 L 160.5 458.4 L 160.9 459.4 L 161.4 459.3 L 162.1 459.0 L 162.7 458.9 L 165.5 460.4 L 166.8 460.9 L 171.2 461.0 L 172.3 461.2 L 173.4 461.7 L 175.5 463.6 L 176.1 463.9 L 177.2 464.0 L 177.6 463.7 L 178.0 463.4 L 178.5 463.2 L 179.5 463.3 L 180.7 463.9 L 181.6 463.9 L 182.2 463.7 L 183.4 462.7 L 183.8 462.5 L 185.2 460.7 L 185.8 460.4 L 186.6 460.3 L 187.4 460.4 L 188.2 460.4 L 192.6 459.1 L 193.9 458.9 L 197.4 459.8 L 197.5 461.6 L 195.5 462.9 L 192.9 462.5 L 192.9 463.2 L 190.8 462.4 L 188.9 462.2 L 187.0 462.4 L 184.8 463.2 L 185.5 463.6 L 187.1 464.5 L 188.7 464.9 L 188.8 465.5 L 188.8 466.3 L 189.2 467.1 L 191.0 467.9 L 194.1 467.4 L 195.6 468.2 L 199.1 466.1 L 203.3 465.6 L 218.8 466.8 L 220.8 467.2 L 224.7 469.2 L 226.8 469.7 L 234.7 469.4 L 238.5 469.7 L 242.0 471.0 L 243.8 472.1 L 245.3 472.7 L 246.9 472.8 L 249.4 472.3 L 256.3 471.1 L 264.8 473.2 L 264.3 474.9 L 266.2 474.5 L 268.8 473.6 L 270.5 473.6 L 272.0 474.2 L 278.9 475.4 L 282.7 474.5 L 285.4 472.2 L 287.3 469.0 L 289.0 465.4 L 291.3 462.4 L 294.5 461.7 L 310.8 463.2 L 311.4 462.9 L 311.7 462.5 L 311.8 462.0 L 312.8 461.9 L 313.2 462.4 L 315.6 464.8 L 316.5 465.4 L 318.3 464.9 L 319.0 463.1 L 319.3 460.7 L 319.1 454.4 L 319.3 453.2 L 320.0 451.8 L 320.7 451.0 L 321.1 450.2 L 320.5 449.0 L 319.7 448.3 L 315.2 446.1 L 314.0 445.9 L 311.6 445.8 L 310.4 445.5 L 308.5 443.8 L 306.7 441.6 L 304.8 440.1 L 302.4 440.4 L 299.1 438.3 L 298.2 437.4 L 297.4 435.4 L 292.4 427.5 L 291.0 426.1 L 289.0 424.5 L 287.0 423.2 L 285.3 422.6 L 283.5 421.7 L 273.2 410.5 L 272.7 407.8 L 276.9 406.2 L 280.6 405.9 L 282.7 405.2 L 283.6 403.7 L 283.0 401.7 L 281.6 400.7 L 279.8 400.0 L 278.2 399.1 L 277.2 397.7 L 274.8 393.6 L 274.2 391.9 L 274.8 391.4 L 274.9 390.5 L 275.9 389.6 L 276.9 387.2 L 277.6 386.2 L 278.7 385.7 L 280.2 385.4 L 281.8 385.3 L 282.9 385.5 L 281.5 382.7 L 280.5 382.1 L 278.6 381.9 L 277.4 381.1 L 277.0 379.0 L 277.2 376.9 L 277.6 375.6 L 278.2 376.2 L 279.0 376.8 L 280.0 377.1 L 280.9 376.9 L 282.0 376.1 L 282.1 375.4 L 281.7 374.5 L 281.6 372.1 L 281.3 371.7 L 282.9 372.0 L 283.4 372.3 L 284.1 372.9 L 285.1 373.4 L 286.3 373.4 L 284.4 369.6 L 283.4 369.1 L 278.3 368.8 L 277.1 367.8 L 276.2 366.4 L 274.9 364.8 L 273.1 363.5 L 266.8 360.6 L 261.6 357.4 L 259.8 357.0 L 258.1 356.2 L 254.7 353.3 L 254.0 353.1 L 253.1 353.5 L 247.0 351.3 L 246.0 351.2 L 244.0 350.7 L 243.1 350.6 L 242.4 350.8 L 242.0 351.3 L 241.3 351.8 L 240.3 352.1 L 238.8 351.7 L 236.7 350.8 L 234.6 349.6 L 233.2 348.5 L 231.2 350.4 L 227.0 350.9 L 217.7 350.5 L 215.8 350.0 L 214.8 349.9 L 214.1 349.4 L 212.3 347.5 L 211.4 347.0 L 210.0 346.1 L 209.5 344.0 L 209.3 341.9 L 209.0 340.6 L 212.5 335.0 L 213.0 333.8 L 214.0 333.8 L 219.1 331.4 L 219.1 330.6 L 213.7 330.6 L 215.3 329.4 L 217.1 329.2 L 219.1 329.4 L 221.1 329.3 L 233.1 323.8 L 236.6 321.2 L 238.5 318.5 L 239.7 319.9 L 240.8 320.3 L 243.6 320.0 L 245.0 320.2 L 247.6 321.1 L 249.0 321.3 L 250.2 321.3 L 250.8 321.2 L 252.8 320.7 L 254.2 320.5 L 255.7 320.6 L 257.1 321.1 L 258.1 322.1 L 258.8 320.5 L 260.7 319.5 L 262.9 319.3 L 264.8 320.0 L 267.4 318.9 L 270.5 318.1 L 273.8 317.7 L 276.9 317.8 L 286.9 320.2 L 289.3 321.7 L 291.4 322.7 L 297.2 324.5 L 297.5 324.9 L 299.6 327.5 L 302.2 329.3 L 304.9 330.3 L 306.4 329.3 L 308.2 330.2 L 311.2 331.4 L 314.0 332.1 L 315.2 331.7 L 315.8 333.4 L 320.5 337.8 L 320.5 338.4 L 320.1 338.2 L 318.5 337.8 L 319.8 340.8 L 320.2 341.3 L 321.9 341.7 L 321.9 340.6 L 323.2 339.2 L 322.3 339.2 L 322.2 338.6 L 322.6 337.8 L 321.9 336.4 L 322.6 336.4 L 324.0 337.2 L 326.0 337.4 L 327.8 336.8 L 328.6 335.2 L 329.6 334.2 L 331.5 334.2 L 332.8 335.3 L 332.0 337.8 L 333.7 338.8 L 335.3 339.0 L 339.1 338.3 L 340.0 338.4 L 340.7 338.9 L 342.1 340.3 L 343.1 340.6 L 346.4 340.6 L 347.2 340.9 L 347.7 341.3 L 348.0 341.8 L 348.9 342.3 L 350.2 343.3 L 351.1 343.5 L 351.9 343.1 L 352.4 342.4 L 353.0 341.6 L 354.1 341.3 L 356.0 339.9 L 358.8 339.9 L 363.6 341.3 L 366.2 341.6 L 366.9 342.2 L 366.3 343.5 L 365.5 344.0 L 364.3 344.2 L 361.6 344.2 L 362.6 346.1 L 364.3 346.3 L 366.1 345.8 L 367.6 345.5 L 369.4 347.0 L 370.4 347.7 L 370.9 347.4 L 371.5 346.0 L 371.2 345.2 L 369.1 344.7 L 368.4 344.0 L 368.0 343.1 L 368.2 342.1 L 368.9 341.4 L 370.1 341.5 L 372.6 342.1 L 376.7 342.2 Z"/>
<path d="M 193.2 510.2 L 194.9 510.3 L 196.8 510.7 L 198.2 511.6 L 198.2 513.1 L 197.0 513.8 L 195.0 514.0 L 191.2 513.8 L 189.5 513.5 L 188.0 512.5 L 185.5 510.2 L 185.8 509.2 L 186.3 508.8 L 186.8 508.9 L 187.5 509.6 L 188.6 508.8 L 189.1 509.1 L 189.5 509.8 L 190.2 510.2 L 193.2 510.2 Z"/>
<path d="M 269.6 302.8 L 272.4 302.7 L 274.3 302.9 L 276.0 303.7 L 278.2 305.0 L 287.5 308.7 L 291.4 311.2 L 290.3 313.6 L 288.7 312.9 L 280.4 311.8 L 276.6 310.2 L 271.8 309.2 L 270.2 308.4 L 269.0 308.6 L 267.9 309.1 L 266.8 309.3 L 264.8 308.9 L 262.4 308.0 L 260.2 306.9 L 258.8 305.6 L 259.5 305.5 L 260.1 305.0 L 264.6 303.5 L 269.6 302.8 Z"/>
<path d="M 229.5 428.7 L 227.7 427.3 L 227.2 426.9 L 226.5 426.0 L 225.8 424.9 L 225.5 423.8 L 225.9 422.6 L 227.1 421.3 L 228.8 420.1 L 230.8 419.3 L 232.9 419.0 L 235.2 419.3 L 248.8 425.0 L 255.5 427.2 L 263.0 431.1 L 270.0 434.0 L 272.8 437.5 L 273.6 439.8 L 273.9 442.5 L 273.7 445.1 L 272.5 447.2 L 271.5 447.6 L 270.8 447.0 L 269.9 445.1 L 269.0 444.3 L 268.3 444.1 L 266.1 444.0 L 257.4 442.0 L 254.4 441.8 L 251.2 441.0 L 242.6 435.4 L 233.9 433.0 L 231.5 431.5 L 229.5 428.7 Z"/>
<path d="M 376.7 342.2 L 378.6 342.6 L 380.4 343.5 L 380.0 341.4 L 378.2 337.4 L 378.4 336.4 L 378.4 335.6 L 375.7 335.5 L 375.4 334.4 L 376.4 332.7 L 378.0 331.0 L 378.4 330.7 L 378.9 330.6 L 380.0 330.6 L 380.7 330.4 L 381.8 329.0 L 382.4 328.5 L 383.5 328.0 L 384.4 327.8 L 385.3 327.4 L 386.4 326.4 L 385.7 325.1 L 385.6 323.9 L 386.1 323.1 L 387.4 322.8 L 388.2 322.9 L 389.3 323.4 L 390.1 323.5 L 391.1 322.3 L 401.5 321.3 L 404.1 321.7 L 406.6 322.6 L 416.0 327.5 L 418.7 328.0 L 421.3 327.0 L 423.3 328.5 L 424.7 329.1 L 429.0 329.3 L 430.2 329.0 L 430.5 328.2 L 430.5 327.1 L 431.0 326.0 L 432.2 325.6 L 433.0 326.5 L 434.1 329.3 L 434.9 328.8 L 435.4 328.3 L 435.8 327.7 L 436.1 327.0 L 435.3 326.8 L 434.8 325.7 L 436.3 326.3 L 437.6 326.2 L 438.9 325.9 L 440.5 325.7 L 441.5 324.9 L 443.3 321.5 L 444.5 320.7 L 446.0 320.3 L 449.2 318.7 L 450.9 318.5 L 452.5 318.9 L 454.0 319.8 L 454.8 321.1 L 454.3 322.8 L 456.2 323.5 L 456.9 323.5 L 456.4 321.9 L 456.2 321.3 L 460.9 322.1 L 462.3 322.0 L 465.2 321.3 L 466.3 321.3 L 467.6 322.2 L 471.9 327.3 L 472.2 328.3 L 471.7 329.3 L 475.4 329.3 L 476.8 330.0 L 480.5 333.1 L 484.1 335.0 L 487.9 336.3 L 492.2 337.0 L 498.2 337.0 L 498.7 336.7 L 499.2 336.0 L 500.3 335.2 L 501.7 334.5 L 502.7 334.2 L 506.5 335.4 L 512.5 341.7 L 516.1 345.5 L 517.7 346.7 L 519.5 347.6 L 521.5 348.2 L 526.0 348.7 L 529.6 350.0 L 536.1 351.3 L 537.6 351.3 L 538.6 350.9 L 539.5 350.2 L 543.0 346.3 L 544.9 345.5 L 550.3 345.5 L 553.0 345.3 L 554.2 345.4 L 555.7 346.3 L 559.0 349.9 L 560.1 352.3 L 560.0 354.9 L 558.4 360.6 L 560.4 361.5 L 561.1 363.3 L 561.1 368.1 L 561.3 370.1 L 562.0 371.8 L 568.5 381.6 L 571.4 384.5 L 571.8 384.8 L 575.2 386.2 L 577.1 385.9 L 580.9 384.4 L 582.9 384.1 L 587.3 383.9 L 589.3 383.5 L 591.3 382.7 L 594.2 380.7 L 595.3 380.5 L 596.3 380.7 L 598.4 381.7 L 599.7 381.9 L 602.0 381.4 L 603.1 381.2 L 604.2 381.4 L 604.6 381.7 L 604.7 382.3 L 605.0 382.8 L 605.7 382.6 L 606.8 381.9 L 612.5 384.3 L 614.2 385.5 L 615.3 383.2 L 617.1 381.6 L 621.5 379.1 L 624.4 378.2 L 625.1 379.4 L 624.3 381.9 L 622.9 384.9 L 624.8 385.6 L 627.0 385.6 L 629.2 385.0 L 631.0 384.1 L 631.5 386.4 L 630.3 388.2 L 628.5 389.8 L 627.6 391.6 L 627.2 393.5 L 626.0 395.2 L 624.3 396.4 L 622.2 396.9 L 614.5 395.5 L 606.1 396.2 L 604.1 395.6 L 600.4 393.8 L 587.9 392.2 L 586.5 392.6 L 586.0 394.0 L 585.7 398.9 L 584.9 403.2 L 585.3 404.7 L 586.2 405.4 L 587.4 406.3 L 592.8 405.5 L 594.7 406.2 L 597.0 405.4 L 601.6 407.2 L 604.1 406.9 L 603.5 406.4 L 602.7 405.9 L 601.7 405.6 L 600.6 405.4 L 600.6 404.7 L 605.9 404.5 L 607.4 404.7 L 609.1 406.0 L 610.5 409.2 L 612.2 410.5 L 613.8 410.9 L 617.2 411.4 L 626.3 413.8 L 630.1 414.9 L 631.6 414.8 L 633.5 413.7 L 632.9 412.9 L 631.6 412.2 L 631.6 411.2 L 633.4 410.7 L 634.9 412.1 L 637.0 415.5 L 638.3 416.2 L 639.8 416.7 L 641.1 417.2 L 641.7 418.4 L 642.9 417.4 L 645.3 416.3 L 646.4 415.5 L 645.7 414.6 L 646.9 414.4 L 647.7 414.1 L 648.8 413.0 L 649.1 412.6 L 653.0 412.8 L 655.0 413.2 L 656.9 413.8 L 658.5 414.8 L 658.7 415.4 L 659.2 416.2 L 661.2 416.9 L 664.9 417.6 L 667.1 417.7 L 668.0 418.0 L 668.9 418.7 L 669.8 419.2 L 671.6 419.3 L 672.6 419.7 L 684.0 430.4 L 688.2 435.5 L 694.1 440.1 L 698.3 443.0 L 699.5 443.6 L 700.1 444.0 L 704.6 448.3 L 710.2 451.7 L 712.9 455.9 L 712.3 460.0 L 703.1 474.1 L 702.5 474.7 L 701.8 475.4 L 701.5 476.4 L 701.7 480.0 L 701.5 481.0 L 700.4 482.8 L 698.8 483.6 L 696.8 483.9 L 694.5 483.9 L 692.7 483.3 L 688.8 480.7 L 687.4 480.3 L 685.7 481.4 L 686.0 483.0 L 686.5 485.0 L 685.7 487.0 L 684.5 488.7 L 683.7 490.6 L 682.2 496.6 L 681.7 497.7 L 680.5 498.1 L 672.3 498.8 L 670.6 498.1 L 670.3 494.3 L 668.0 489.3 L 664.7 484.4 L 661.8 481.0 L 658.7 478.9 L 654.7 477.1 L 650.6 476.6 L 645.8 478.5 L 638.7 478.8 L 636.8 478.5 L 632.5 477.0 L 630.6 476.7 L 628.9 476.2 L 626.1 473.7 L 623.9 473.2 L 622.0 473.6 L 620.1 474.2 L 618.1 474.4 L 616.2 473.2 L 614.1 475.1 L 601.4 476.1 L 597.6 477.5 L 595.6 477.5 L 590.2 473.8 L 588.0 472.6 L 586.6 472.5 L 586.0 473.4 L 586.0 474.6 L 586.2 475.8 L 585.9 476.7 L 585.0 477.0 L 583.7 477.0 L 582.4 476.8 L 581.8 476.4 L 580.2 473.6 L 579.4 472.8 L 578.7 472.6 L 563.6 470.9 L 560.8 471.0 L 558.8 471.5 L 555.8 473.0 L 553.2 474.8 L 552.3 475.2 L 549.7 476.1 L 548.6 476.6 L 547.4 477.2 L 545.2 479.2 L 543.6 481.8 L 542.9 485.0 L 542.4 485.8 L 540.1 487.0 L 539.6 487.8 L 539.2 488.9 L 535.9 492.0 L 533.5 494.8 L 532.2 496.0 L 531.6 495.7 L 529.2 495.7 L 527.4 496.0 L 526.2 496.7 L 524.4 495.7 L 522.6 495.3 L 510.0 495.3 L 507.9 496.0 L 503.9 498.3 L 501.6 498.8 L 494.8 498.8 L 493.2 498.1 L 493.1 497.3 L 493.8 496.6 L 494.7 495.9 L 495.2 495.3 L 494.9 494.2 L 494.2 493.6 L 493.6 493.2 L 492.8 492.1 L 490.9 490.9 L 490.5 490.0 L 490.7 488.9 L 491.3 488.4 L 492.0 488.1 L 492.5 487.4 L 493.0 485.3 L 493.0 483.1 L 492.8 481.2 L 492.2 479.9 L 490.1 477.2 L 488.8 476.3 L 486.5 475.4 L 484.6 474.9 L 482.1 474.7 L 480.0 475.3 L 479.1 477.1 L 479.5 479.3 L 479.2 480.2 L 476.3 483.1 L 475.5 483.6 L 474.4 483.9 L 473.3 483.8 L 471.3 483.2 L 470.4 483.1 L 469.6 483.4 L 468.2 484.4 L 467.3 484.6 L 466.1 484.4 L 465.6 484.7 L 464.7 485.6 L 464.4 486.0 L 463.8 487.3 L 463.4 488.2 L 462.1 488.6 L 461.6 488.9 L 459.0 492.0 L 457.6 492.8 L 455.3 493.1 L 454.3 492.8 L 453.7 491.9 L 453.2 490.9 L 452.6 490.0 L 451.5 489.2 L 450.5 488.7 L 446.3 487.8 L 444.3 487.7 L 442.7 488.4 L 442.1 490.0 L 441.9 490.8 L 441.1 492.3 L 440.8 493.5 L 441.0 494.8 L 441.5 495.6 L 442.2 496.2 L 442.9 497.4 L 444.5 503.0 L 445.0 504.0 L 445.0 505.2 L 443.1 508.2 L 441.5 512.4 L 432.2 526.1 L 431.4 528.4 L 431.0 529.3 L 430.0 529.9 L 428.1 530.9 L 426.9 532.0 L 426.0 533.0 L 425.3 534.2 L 424.7 536.0 L 424.0 535.7 L 423.3 535.2 L 423.2 536.0 L 422.7 536.6 L 423.3 536.6 L 422.9 537.4 L 422.4 538.1 L 421.8 538.5 L 421.0 538.7 L 420.7 539.1 L 420.0 541.2 L 419.6 541.9 L 418.4 543.7 L 415.1 553.5 L 414.1 555.4 L 410.1 561.1 L 409.1 560.7 L 408.2 559.8 L 407.2 558.6 L 400.5 547.3 L 398.9 545.5 L 395.6 544.2 L 387.7 545.3 L 384.4 544.4 L 385.3 543.7 L 388.5 540.4 L 389.1 539.1 L 389.0 536.8 L 388.6 535.3 L 387.1 532.3 L 386.0 530.7 L 385.8 530.1 L 385.7 528.8 L 386.4 524.9 L 385.7 523.1 L 383.9 521.0 L 380.4 518.0 L 374.9 515.9 L 376.1 512.8 L 376.4 511.0 L 376.2 508.0 L 376.3 506.2 L 376.0 505.1 L 375.0 502.1 L 374.8 501.1 L 375.1 499.1 L 375.9 497.1 L 380.2 489.6 L 381.4 487.4 L 380.3 486.3 L 378.9 485.4 L 373.7 483.4 L 370.0 480.9 L 369.2 480.0 L 367.7 477.8 L 366.8 477.0 L 363.0 476.0 L 361.6 475.2 L 361.0 473.3 L 361.3 472.2 L 362.1 471.7 L 362.6 471.2 L 362.3 469.6 L 361.7 468.6 L 352.8 459.4 L 352.0 457.7 L 353.7 456.5 L 357.3 455.7 L 364.7 457.1 L 368.5 455.8 L 369.7 454.4 L 371.8 450.9 L 373.1 449.4 L 374.0 448.8 L 376.7 447.2 L 378.0 446.0 L 379.2 444.1 L 379.9 442.3 L 380.4 440.4 L 380.5 438.5 L 379.7 434.4 L 379.6 430.2 L 379.1 428.2 L 378.3 427.3 L 376.1 425.2 L 375.2 424.2 L 373.8 421.2 L 372.9 420.5 L 370.6 420.4 L 368.2 421.2 L 366.4 421.5 L 366.1 419.7 L 367.8 418.6 L 372.9 417.2 L 374.1 416.4 L 378.4 411.7 L 381.3 407.5 L 382.8 406.2 L 386.1 403.8 L 387.4 401.9 L 387.9 400.2 L 388.3 394.0 L 387.1 393.4 L 380.7 390.3 L 377.5 386.9 L 377.1 386.5 L 375.3 384.0 L 374.9 382.0 L 375.5 381.3 L 378.1 379.8 L 379.1 379.0 L 380.3 375.9 L 380.9 375.3 L 382.0 372.9 L 382.0 368.3 L 380.9 360.1 L 378.1 353.6 L 377.7 351.2 L 377.8 348.5 L 377.9 346.9 L 377.6 345.0 L 376.7 342.2 Z"/>
<path d="M 680.0 502.4 L 685.1 502.3 L 686.4 502.7 L 687.4 504.1 L 688.5 506.1 L 689.2 508.0 L 689.0 508.8 L 687.5 508.5 L 684.4 507.0 L 682.7 506.7 L 681.0 506.9 L 678.0 507.9 L 676.3 508.1 L 672.8 507.2 L 670.4 504.9 L 668.8 502.1 L 667.9 499.6 L 669.4 499.1 L 671.1 499.5 L 672.8 500.3 L 674.3 501.4 L 675.4 501.8 L 680.0 502.4 Z"/>
<path d="M 49.5 322.7 L 49.5 315.0 L 45.4 315.0 L 45.6 314.5 L 46.1 314.0 L 47.5 313.0 L 48.8 312.8 L 50.0 310.5 L 50.5 309.3 L 49.9 308.3 L 49.8 305.6 L 47.8 306.0 L 46.8 307.4 L 46.2 308.5 L 45.5 309.8 L 44.7 309.3 L 43.7 308.8 L 42.2 309.4 L 41.6 310.6 L 41.4 311.6 L 41.8 312.7 L 42.3 312.9 L 42.9 313.0 L 43.6 312.5 L 43.8 312.1 L 44.0 312.6 L 44.4 313.6 L 43.2 314.3 L 43.1 315.1 L 41.3 315.1 L 36.4 318.5 L 36.0 322.4 L 30.9 323.6 L 21.2 324.2 L 20.2 324.1 L 16.9 323.4 L 15.9 322.9 L 15.3 322.8 L 14.2 323.9 L 13.5 324.2 L 10.9 324.6 L 7.8 324.5 L 4.8 324.0 L 2.8 322.8 L -0.5 323.2 L -4.5 321.1 L -8.5 318.2 L -11.9 316.4 L -14.1 316.2 L -21.1 316.4 L -23.0 316.2 L -26.8 315.2 L -28.8 314.9 L -32.6 315.4 L -34.5 315.9 L -35.8 316.8 L -37.3 317.0 L -50.2 313.8 L -59.0 312.8 L -63.5 313.0 L -71.4 315.1 L -75.1 315.7 L -82.2 315.7 L -84.3 316.0 L -88.5 317.4 L -90.6 317.8 L -103.1 317.1 L -115.8 318.2 L -117.8 319.2 L -120.0 319.1 L -122.1 318.6 L -124.2 318.5 L -125.7 319.2 L -128.8 321.7 L -130.9 322.8 L -133.2 323.3 L -145.9 323.9 L -148.4 323.5 L -153.3 321.6 L -155.8 321.1 L -157.1 322.1 L -157.8 322.1 L -158.5 321.4 L -159.5 321.3 L -160.5 321.7 L -161.2 322.8 L -163.6 321.9 L -166.5 321.7 L -169.0 322.4 L -170.6 324.2 L -167.9 324.2 L -167.9 324.9 L -169.7 325.0 L -172.4 326.1 L -174.2 326.4 L -183.3 326.6 L -189.5 328.1 L -193.1 328.5 L -197.2 328.2 L -203.3 329.8 L -205.2 329.9 L -206.5 329.7 L -207.8 329.1 L -208.9 328.2 L -209.5 327.0 L -209.4 325.1 L -207.6 321.7 L -207.5 320.7 L -206.7 320.5 L -205.5 320.3 L -204.8 320.0 L -204.1 319.3 L -203.5 318.3 L -202.8 317.8 L -203.1 316.7 L -202.6 315.9 L -200.8 314.2 L -198.6 311.2 L -198.4 310.7 L -198.1 309.9 L -193.4 305.7 L -193.6 304.8 L -194.9 303.4 L -194.7 302.8 L -193.9 302.9 L -191.3 303.7 L -190.3 302.8 L -188.4 302.2 L -188.0 301.8 L -187.7 301.2 L -186.0 298.5 L -184.3 297.4 L -180.1 295.1 L -178.5 292.8 L -176.6 291.4 L -166.7 286.8 L -164.8 286.5 L -163.4 285.7 L -161.8 281.9 L -160.4 280.7 L -159.8 280.7 L -159.1 280.7 L -159.7 281.9 L -159.1 282.5 L -157.9 282.6 L -156.4 282.2 L -155.1 281.3 L -154.0 280.1 L -153.4 278.5 L -153.1 276.8 L -152.4 276.2 L -148.4 273.7 L -148.1 268.7 L -147.4 268.0 L -146.6 267.3 L -145.3 263.6 L -148.4 258.7 L -149.3 257.8 L -152.0 256.1 L -155.5 254.7 L -156.4 254.6 L -155.8 255.8 L -156.4 256.5 L -158.2 255.2 L -159.8 254.5 L -160.8 253.5 L -161.2 251.1 L -160.8 250.4 L -160.0 250.0 L -159.2 249.7 L -158.5 249.4 L -156.4 246.5 L -156.4 245.8 L -160.0 243.6 L -161.9 243.2 L -162.6 245.1 L -164.5 243.2 L -166.2 240.6 L -168.1 238.3 L -170.9 237.3 L -173.7 237.5 L -176.8 238.3 L -179.3 239.4 L -180.6 240.8 L -181.6 240.3 L -182.6 240.6 L -183.3 240.8 L -184.3 241.1 L -185.0 241.4 L -185.6 241.6 L -186.7 241.5 L -188.4 241.3 L -193.4 239.4 L -197.2 241.5 L -198.1 241.5 L -199.5 240.5 L -200.2 240.1 L -200.9 240.0 L -203.8 240.1 L -204.6 240.0 L -206.5 239.5 L -207.1 239.1 L -208.8 239.4 L -213.6 239.1 L -215.3 238.6 L -217.9 236.8 L -219.7 236.3 L -223.3 235.9 L -225.4 236.4 L -226.9 237.5 L -228.1 238.7 L -229.6 239.4 L -236.0 239.6 L -239.3 238.7 L -240.4 236.5 L -241.1 236.5 L -241.7 238.0 L -244.9 234.2 L -246.1 233.7 L -248.2 233.2 L -249.4 232.1 L -251.2 228.8 L -252.2 227.6 L -254.0 225.9 L -256.0 224.7 L -257.5 224.8 L -258.6 225.3 L -258.9 224.8 L -259.0 223.8 L -259.2 223.1 L -260.4 221.7 L -261.0 220.7 L -261.3 219.8 L -262.0 218.3 L -268.9 213.3 L -270.2 212.9 L -273.7 213.1 L -274.9 212.4 L -276.0 210.8 L -277.4 208.0 L -278.7 206.9 L -282.3 204.1 L -283.1 204.0 L -283.8 203.0 L -284.4 199.5 L -284.7 192.7 L -285.5 189.8 L -287.0 186.9 L -288.1 183.9 L -287.4 180.9 L -286.5 182.0 L -285.4 182.1 L -284.5 181.4 L -284.1 179.9 L -284.9 178.9 L -288.0 177.8 L -288.8 177.1 L -289.0 175.2 L -289.9 171.9 L -290.1 169.9 L -290.5 168.1 L -292.4 165.0 L -292.8 163.5 L -293.4 160.0 L -294.9 156.7 L -296.9 153.8 L -298.9 151.8 L -300.5 150.7 L -302.1 150.1 L -307.3 149.3 L -308.5 148.9 L -308.9 148.2 L -308.3 146.7 L -307.2 147.4 L -305.9 147.6 L -303.2 147.5 L -302.9 147.0 L -303.4 146.0 L -304.6 144.3 L -305.3 143.7 L -306.3 142.9 L -308.3 141.8 L -309.7 141.4 L -310.4 141.5 L -311.1 141.9 L -312.3 142.5 L -316.9 143.5 L -321.4 143.9 L -321.9 144.1 L -322.5 144.6 L -322.9 145.2 L -323.1 145.7 L -323.4 146.1 L -324.2 146.2 L -327.2 146.0 L -328.4 145.7 L -329.4 145.7 L -330.4 146.1 L -331.1 145.3 L -332.8 146.2 L -334.6 146.6 L -338.8 146.7 L -340.7 147.1 L -345.9 149.6 L -349.9 150.6 L -353.8 151.0 L -357.8 150.6 L -365.6 148.3 L -367.3 147.4 L -369.1 145.7 L -370.5 145.5 L -375.6 146.1 L -377.5 146.1 L -379.6 145.4 L -380.6 144.8 L -381.5 143.9 L -383.0 141.5 L -383.9 140.6 L -384.2 141.4 L -384.5 142.5 L -385.3 143.2 L -386.2 143.3 L -387.2 142.8 L -388.2 142.0 L -388.7 141.7 L -392.9 140.5 L -393.5 140.3 L -394.3 139.6 L -394.9 138.6 L -395.3 137.5 L -396.0 136.5 L -397.3 136.1 L -404.2 135.9 L -410.8 134.0 L -413.3 134.0 L -414.4 135.7 L -415.1 137.5 L -416.7 137.3 L -418.9 136.2 L -421.1 135.4 L -421.1 134.6 L -419.1 133.9 L -419.1 133.2 L -420.6 132.9 L -420.9 131.7 L -420.8 130.2 L -421.1 129.0 L -422.8 130.2 L -424.5 130.7 L -426.4 130.7 L -428.6 130.4 L -430.6 129.7 L -431.7 129.4 L -432.6 129.6 L -432.9 130.3 L -432.3 131.1 L -431.3 131.6 L -430.5 131.7 L -431.7 133.0 L -433.5 132.2 L -435.2 130.3 L -435.9 128.6 L -436.1 126.4 L -436.8 124.4 L -438.0 123.0 L -439.6 122.5 L -441.7 122.2 L -445.7 120.7 L -449.8 119.8 L -452.7 117.4 L -457.8 115.8 L -460.9 113.2 L -471.6 101.9 L -471.8 101.4 L -471.8 100.3 L -472.2 99.7 L -473.8 99.8 L -475.3 98.8 L -475.6 98.1 L -475.6 96.9 L -474.2 97.2 L -472.5 97.1 L -470.8 96.5 L -469.5 95.5 L -471.0 95.8 L -471.6 96.1 L -471.2 95.2 L -470.6 94.3 L -470.2 93.5 L -470.2 92.6 L -471.0 92.3 L -472.2 92.6 L -473.1 92.6 L -473.0 91.2 L -474.9 91.2 L -476.1 90.4 L -476.3 89.2 L -474.8 87.6 L -477.2 86.2 L -478.1 85.3 L -478.9 84.0 L -479.5 85.1 L -480.7 85.5 L -482.2 85.3 L -483.6 84.7 L -484.1 86.9 L -483.2 88.3 L -480.3 90.4 L -478.8 92.4 L -477.5 94.7 L -476.9 97.3 L -477.5 99.7 L -481.7 98.1 L -493.9 98.5 L -506.0 97.6 L -520.1 99.2 L -528.6 98.4 L -530.6 97.7 L -534.2 95.8 L -538.1 95.1 L -539.6 94.0 L -540.6 92.4 L -543.1 87.2 L -543.4 86.2 L -543.5 84.5 L -542.8 80.1 L -543.2 79.8 L -545.8 75.8 L -547.1 75.0 L -548.4 74.7 L -549.5 75.1 L -550.2 76.2 L -550.2 77.5 L -548.8 81.9 L -548.7 94.5 L -549.5 97.7 L -551.5 97.6 L -550.1 95.3 L -550.5 92.0 L -551.9 89.0 L -552.9 88.3 L -555.6 89.3 L -556.2 89.7 L -556.5 90.6 L -556.4 92.5 L -556.8 93.3 L -558.0 93.9 L -558.8 93.5 L -559.4 92.8 L -560.2 92.6 L -560.9 93.1 L -561.1 93.8 L -561.3 94.5 L -562.5 94.7 L -566.1 93.2 L -568.2 86.2 L -572.0 84.7 L -576.7 84.7 L -577.8 84.4 L -579.7 83.0 L -580.7 82.7 L -581.5 83.0 L -582.9 84.4 L -584.1 84.7 L -584.5 85.1 L -585.4 85.5 L -586.0 84.4 L -586.4 84.0 L -590.5 82.7 L -591.0 82.4 L -592.1 81.9 L -593.3 81.9 L -593.8 83.0 L -594.8 83.4 L -596.9 83.5 L -599.2 83.3 L -600.6 82.7 L -601.2 82.7 L -601.4 84.0 L -602.1 84.3 L -603.9 84.0 L -603.6 84.4 L -603.2 85.5 L -604.3 85.4 L -608.8 84.9 L -610.2 84.4 L -612.7 81.6 L -613.6 80.2 L -614.0 78.7 L -615.7 76.9 L -629.5 71.4 L -631.0 70.6 L -632.5 69.4 L -633.3 68.9 L -635.3 68.7 L -636.1 68.4 L -636.6 67.8 L -637.7 65.9 L -639.1 65.5 L -640.9 65.3 L -642.6 64.5 L -643.5 62.7 L -643.0 61.1 L -641.8 60.1 L -640.3 59.5 L -639.1 59.1 L -627.8 59.5 L -624.1 58.5 L -621.5 58.9 L -618.5 58.7 L -616.7 58.4 L -614.1 59.0 L -611.9 59.2 L -606.8 58.4 L -602.9 56.8 L -601.8 57.0 L -600.8 56.5 L -598.9 56.5 L -597.8 56.2 L -596.4 55.8 L -595.1 54.5 L -594.2 53.6 L -593.3 53.3 L -593.4 51.1 L -593.0 50.1 L -593.3 48.5 L -592.4 45.6 L -592.5 44.4 L -593.9 44.0 L -595.4 43.9 L -598.0 41.6 L -599.9 40.2 L -603.3 37.6 L -606.7 36.4 L -615.4 33.3 L -618.9 33.4 L -626.7 34.1 L -637.1 35.9 L -640.3 34.5 L -646.9 32.7 L -654.4 32.7 L -658.5 33.2 L -660.7 33.4 L -662.7 33.2 L -665.8 32.4 L -672.3 33.2 L -677.5 32.0 L -678.6 32.2 L -680.5 33.2 L -681.5 33.4 L -686.0 32.4 L -689.5 33.3 L -699.8 30.5 L -701.9 30.6 L -704.0 31.6 L -705.0 33.3 L -705.3 35.3 L -705.4 37.4 L -705.9 39.2 L -707.4 40.2 L -710.7 41.3 L -716.6 46.2 L -717.8 47.0 L -720.0 47.2 L -721.5 47.6 L -728.0 51.0 L -731.2 53.1 L -733.9 55.9 L -739.5 66.4 L -741.8 68.7 L -745.0 69.1 L -748.3 68.1 L -749.6 68.0 L -751.0 68.4 L -751.0 70.1 L -751.5 70.5 L -752.7 70.6 L -753.5 70.4 L -753.6 72.3 L -757.2 74.9 L -758.4 76.2 L -758.9 77.0 L -759.0 77.9 L -759.7 79.9 L -760.2 80.5 L -761.1 81.2 L -761.4 80.9 L -761.6 81.8 L -762.3 82.5 L -762.9 81.4 L -763.7 81.1 L -764.5 81.2 L -764.6 82.9 L -766.2 84.7 L -771.1 85.1 L -776.2 84.4 L -780.5 82.7 L -779.7 81.8 L -780.0 80.7 L -780.7 79.6 L -781.2 78.4 L -781.9 78.4 L -783.3 81.1 L -785.7 83.6 L -788.6 85.5 L -791.3 86.2 L -790.9 85.1 L -801.5 86.2 L -802.0 86.2 L -802.4 85.8 L -802.7 85.0 L -802.8 84.3 L -803.8 84.4 L -805.0 85.8 L -806.4 86.2 L -814.0 85.7 L -816.2 86.2 L -820.2 90.1 L -820.4 90.9 L -821.1 93.7 L -821.6 94.7 L -821.1 95.4 L -820.9 96.1 L -820.8 97.6 L -822.0 96.7 L -823.0 96.9 L -823.7 98.0 L -823.6 99.7 L -822.8 101.1 L -821.9 101.6 L -820.8 101.3 L -819.5 100.4 L -820.1 102.6 L -823.5 105.1 L -824.3 107.2 L -823.9 107.7 L -823.2 108.3 L -822.8 109.1 L -823.3 110.1 L -824.2 110.9 L -825.3 111.8 L -826.4 112.3 L -827.6 112.6 L -829.5 112.1 L -833.2 110.2 L -835.3 109.7 L -837.5 110.2 L -841.2 112.5 L -843.1 113.3 L -844.1 113.4 L -846.1 113.2 L -847.1 113.3 L -848.2 113.7 L -850.4 115.1 L -853.4 116.0 L -865.0 125.6 L -869.2 127.9 L -873.4 128.3 L -874.6 126.2 L -870.7 118.0 L -870.0 113.9 L -872.2 110.9 L -876.1 110.2 L -880.4 110.9 L -888.2 113.2 L -892.0 114.9 L -901.9 121.5 L -905.9 122.4 L -910.1 122.4 L -914.3 121.1 L -915.6 120.0 L -916.4 118.5 L -916.6 116.8 L -916.3 115.1 L -916.0 114.4 L -915.4 113.6 L -914.8 112.9 L -914.2 112.6 L -913.7 112.9 L -913.4 113.4 L -913.1 114.0 L -912.8 114.5 L -912.1 115.1 L -911.3 115.4 L -910.4 115.5 L -909.6 115.4 L -907.9 114.7 L -906.7 113.5 L -906.7 112.2 L -908.3 111.1 L -906.6 110.2 L -905.1 110.2 L -904.2 111.2 L -904.2 113.3 L -896.2 109.0 L -889.1 106.9 L -880.7 103.2 L -875.4 99.4 L -874.6 99.0 L -873.3 98.9 L -872.1 99.1 L -871.5 99.6 L -872.0 100.4 L -868.9 101.7 L -866.6 101.1 L -864.4 99.7 L -861.5 99.0 L -860.1 99.4 L -858.4 100.5 L -857.0 101.8 L -856.5 102.9 L -856.0 103.5 L -853.3 101.6 L -851.8 101.9 L -850.4 96.1 L -851.6 97.4 L -852.6 99.2 L -853.7 100.2 L -855.1 99.0 L -855.7 97.0 L -855.6 95.5 L -855.9 94.3 L -857.8 93.3 L -856.9 91.1 L -856.5 90.4 L -858.3 90.2 L -860.3 89.5 L -862.0 88.6 L -863.3 87.6 L -864.1 86.1 L -864.7 84.4 L -865.6 83.0 L -867.2 82.7 L -866.2 81.8 L -865.1 80.2 L -864.3 78.3 L -863.9 76.5 L -863.7 74.1 L -863.3 71.9 L -861.9 67.3 L -860.2 64.4 L -859.7 64.1 L -858.6 64.0 L -858.2 63.7 L -857.8 63.1 L -857.4 61.8 L -857.1 61.3 L -855.0 58.2 L -853.6 56.6 L -851.8 55.6 L -851.8 54.8 L -853.8 54.8 L -852.1 53.4 L -847.9 52.7 L -846.1 51.6 L -844.9 50.1 L -843.7 47.7 L -843.3 45.5 L -844.4 44.1 L -844.4 43.4 L -843.4 43.7 L -842.4 44.1 L -841.0 43.1 L -839.7 42.9 L -838.5 43.5 L -837.7 44.8 L -836.8 40.9 L -836.3 39.9 L -835.3 39.5 L -832.8 39.3 L -832.3 38.8 L -832.2 37.7 L -831.9 36.0 L -831.2 34.7 L -830.0 35.2 L -828.6 36.1 L -827.6 35.5 L -826.7 34.4 L -825.6 33.4 L -826.3 32.2 L -827.4 31.5 L -828.7 31.2 L -830.3 31.4 L -829.8 30.6 L -829.1 29.8 L -828.2 29.3 L -827.3 29.1 L -825.7 29.7 L -824.9 30.9 L -824.2 32.2 L -823.3 32.8 L -822.0 32.5 L -820.8 32.0 L -814.8 27.7 L -813.5 29.1 L -812.6 26.9 L -811.1 25.9 L -806.8 25.6 L -805.2 25.3 L -798.4 21.9 L -795.0 20.7 L -793.4 20.6 L -792.3 20.8 L -791.1 21.3 L -790.0 21.4 L -789.3 21.1 L -788.0 20.3 L -787.3 19.9 L -787.3 19.2 L -788.0 19.5 L -788.7 19.9 L -788.8 19.3 L -789.3 19.2 L -787.2 17.9 L -785.1 17.2 L -780.2 17.0 L -779.8 16.4 L -778.6 13.1 L -777.9 12.8 L -773.9 12.8 L -774.1 13.5 L -774.5 14.2 L -772.6 14.5 L -771.5 13.5 L -770.7 11.9 L -769.9 10.6 L -768.4 10.0 L -767.3 10.5 L -766.1 11.4 L -764.4 12.1 L -765.1 13.1 L -764.1 12.8 L -762.5 11.8 L -761.7 11.0 L -761.1 9.3 L -759.7 7.1 L -757.8 5.1 L -756.0 4.2 L -754.7 3.8 L -749.7 0.6 L -747.7 -0.2 L -745.8 -0.3 L -744.3 0.3 L -743.0 1.4 L -743.0 2.0 L -743.9 2.7 L -744.2 4.0 L -744.1 5.4 L -743.3 6.7 L -742.1 7.3 L -741.1 6.6 L -740.2 5.6 L -739.6 4.9 L -741.3 3.4 L -741.2 2.1 L -739.8 0.9 L -737.6 -0.0 L -733.5 -0.8 L -732.8 -1.2 L -731.5 -2.0 L -730.9 -2.2 L -729.9 -2.0 L -728.5 -1.1 L -727.5 -0.8 L -727.0 -1.1 L -726.4 -1.7 L -725.7 -2.0 L -724.8 -1.5 L -724.1 -0.4 L -724.8 -0.1 L -725.8 0.1 L -726.2 0.6 L -725.8 1.7 L -725.2 2.1 L -724.4 1.7 L -723.5 0.6 L -723.7 2.7 L -722.0 2.8 L -720.0 1.6 L -718.8 -1.1 L -717.4 -3.4 L -714.2 -3.4 L -710.7 -2.9 L -708.4 -3.3 L -706.2 -4.0 L -697.3 -3.6 L -688.2 -4.8 L -685.9 -5.8 L -683.9 -5.6 L -679.6 -8.0 L -677.5 -8.7 L -676.9 -9.0 L -675.9 -10.5 L -675.4 -10.8 L -674.2 -10.9 L -673.3 -11.3 L -671.8 -12.2 L -668.9 -14.4 L -667.3 -15.3 L -663.4 -15.9 L -658.9 -17.8 L -652.1 -18.9 L -649.0 -20.2 L -642.2 -18.6 L -640.0 -18.8 L -637.3 -19.5 L -636.1 -19.8 L -633.8 -20.0 L -632.8 -20.3 L -631.8 -20.7 L -630.7 -20.9 L -629.7 -20.4 L -626.1 -17.8 L -623.1 -17.0 L -616.9 -16.4 L -614.0 -15.7 L -611.8 -16.4 L -596.5 -16.3 L -593.9 -16.3 L -592.4 -16.5 L -591.1 -17.2 L -590.0 -16.6 L -588.9 -16.5 L -587.7 -16.6 L -586.4 -16.4 L -585.7 -16.0 L -584.0 -14.6 L -581.9 -13.5 L -581.6 -11.4 L -581.9 -9.0 L -582.4 -7.2 L -583.0 -6.4 L -583.6 -6.0 L -582.4 -5.1 L -581.3 -4.9 L -580.2 -5.2 L -578.7 -5.8 L -578.3 -6.3 L -577.7 -8.8 L -577.4 -9.7 L -576.5 -10.4 L -575.8 -10.7 L -574.9 -10.7 L -566.7 -12.1 L -565.6 -12.6 L -564.5 -13.7 L -562.1 -14.4 L -557.5 -15.1 L -556.0 -15.6 L -552.4 -17.3 L -550.0 -19.1 L -545.6 -21.6 L -544.0 -22.1 L -542.2 -21.4 L -543.6 -20.2 L -546.3 -19.1 L -550.8 -18.0 L -556.1 -14.8 L -557.5 -13.6 L -557.5 -12.9 L -553.1 -11.8 L -547.5 -5.4 L -544.0 -3.6 L -542.1 -3.6 L -541.2 -4.1 L -540.6 -5.1 L -539.1 -6.9 L -538.6 -7.7 L -537.6 -10.3 L -537.1 -10.8 L -536.0 -10.9 L -533.9 -11.4 L -533.3 -11.5 L -529.3 -10.8 L -528.6 -10.8 L -528.0 -10.6 L -528.0 -9.0 L -527.2 -6.7 L -525.4 -6.1 L -523.2 -6.5 L -521.2 -7.2 L -505.8 -10.1 L -503.4 -10.2 L -498.8 -9.2 L -496.4 -9.3 L -494.3 -10.2 L -492.5 -11.7 L -492.0 -13.7 L -493.8 -15.7 L -492.5 -16.3 L -491.2 -16.5 L -489.9 -16.2 L -489.0 -15.7 L -489.0 -15.1 L -489.8 -14.3 L -492.4 -9.3 L -489.6 -7.3 L -486.0 -0.8 L -483.9 0.6 L -482.4 0.7 L -478.4 1.5 L -476.9 2.0 L -476.0 2.9 L -475.0 4.1 L -473.7 5.2 L -471.9 5.7 L -466.4 5.7 L -465.1 6.0 L -463.7 7.3 L -462.1 8.2 L -460.5 8.8 L -458.8 9.2 L -455.6 9.3 L -452.5 8.6 L -446.7 6.4 L -447.4 3.9 L -445.8 3.8 L -440.6 6.4 L -438.2 7.1 L -436.3 6.7 L -435.9 4.2 L -434.9 4.8 L -433.8 5.5 L -433.0 6.4 L -432.6 7.4 L -430.4 11.4 L -430.2 12.1 L -426.5 14.2 L -425.9 14.3 L -424.2 14.2 L -423.5 14.4 L -423.2 14.9 L -423.2 15.7 L -421.2 15.1 L -418.0 12.1 L -411.9 10.4 L -411.1 10.6 L -411.1 11.4 L -412.0 12.3 L -413.8 13.5 L -416.1 12.4 L -417.2 13.3 L -418.4 17.0 L -417.4 18.6 L -416.8 19.3 L -415.8 19.9 L -414.8 20.2 L -410.7 20.6 L -409.0 21.2 L -403.2 25.2 L -402.9 25.7 L -402.6 26.1 L -402.0 26.3 L -401.4 26.1 L -400.8 25.6 L -400.4 25.1 L -398.1 24.6 L -397.2 25.1 L -394.8 35.6 L -393.3 36.2 L -392.1 36.8 L -391.0 37.6 L -389.9 38.8 L -388.8 40.4 L -387.5 43.7 L -386.6 45.2 L -384.1 47.9 L -383.5 48.4 L -382.1 48.7 L -379.2 48.7 L -378.1 49.0 L -375.5 53.0 L -375.0 54.2 L -374.2 54.9 L -366.8 61.0 L -364.0 62.4 L -361.4 62.0 L -360.4 62.9 L -358.5 64.2 L -356.7 64.9 L -355.9 63.7 L -354.9 63.6 L -349.8 64.7 L -347.9 64.7 L -346.8 64.0 L -346.6 63.3 L -346.4 62.9 L -345.2 62.7 L -344.2 63.0 L -342.7 63.9 L -341.5 64.1 L -339.4 63.8 L -335.7 62.4 L -333.9 62.0 L -331.6 61.9 L -326.2 62.5 L -316.5 63.6 L -311.9 63.4 L -311.4 64.4 L -309.6 70.5 L -309.2 70.2 L -308.3 69.8 L -307.3 71.1 L -306.4 70.3 L -304.9 67.0 L -306.1 65.2 L -306.8 64.6 L -307.6 64.1 L -307.6 63.4 L -304.7 63.8 L -301.6 66.9 L -290.9 70.6 L -289.5 71.6 L -288.7 72.9 L -286.7 74.5 L -284.5 76.0 L -282.7 76.9 L -280.4 77.6 L -274.5 78.6 L -272.7 78.4 L -272.7 79.1 L -272.6 80.5 L -272.7 81.2 L -271.7 80.7 L -271.3 80.4 L -270.6 81.5 L -269.7 83.4 L -269.0 84.4 L -268.1 85.0 L -266.4 85.9 L -265.6 86.6 L -264.8 87.0 L -263.9 87.0 L -262.9 86.9 L -261.9 86.9 L -258.6 88.3 L -257.1 88.7 L -252.2 89.1 L -251.3 89.5 L -251.1 90.5 L -251.1 91.7 L -250.5 92.6 L -249.7 92.8 L -247.2 92.8 L -247.9 93.3 L -246.8 94.3 L -245.6 94.7 L -244.4 95.0 L -243.3 95.4 L -241.7 95.0 L -240.7 95.9 L -239.4 98.7 L -237.6 100.4 L -237.0 101.1 L -236.4 103.0 L -234.6 106.1 L -233.8 107.1 L -232.7 107.5 L -231.5 108.3 L -227.0 112.9 L -226.7 113.8 L -225.0 116.8 L -224.3 117.5 L -223.1 117.4 L -222.6 116.3 L -222.1 108.6 L -221.6 107.5 L -220.5 107.1 L -217.9 107.5 L -216.3 107.5 L -217.2 108.6 L -220.3 109.2 L -221.0 110.1 L -220.8 111.9 L -220.4 113.3 L -219.8 114.4 L -219.0 115.4 L -217.8 116.5 L -217.0 116.9 L -214.6 116.8 L -213.5 117.5 L -212.8 119.1 L -212.4 120.9 L -212.2 122.2 L -211.9 123.4 L -210.9 124.3 L -209.6 124.9 L -206.9 125.8 L -206.3 125.9 L -204.9 125.2 L -204.0 125.7 L -203.3 126.4 L -202.4 126.8 L -196.5 125.9 L -194.7 126.1 L -193.1 126.8 L -188.7 129.6 L -188.7 128.2 L -187.9 127.4 L -185.4 126.8 L -185.2 127.8 L -184.6 128.3 L -183.7 128.4 L -182.6 128.3 L -183.1 127.1 L -181.9 127.2 L -180.6 128.3 L -178.6 130.4 L -180.0 130.6 L -181.0 130.0 L -181.6 129.9 L -182.0 131.7 L -181.7 133.6 L -180.3 136.9 L -180.0 138.5 L -179.4 139.6 L -178.2 140.0 L -175.2 140.4 L -172.9 141.6 L -172.2 141.8 L -171.3 141.6 L -170.8 141.1 L -170.5 140.6 L -170.3 139.8 L -170.9 138.6 L -171.8 137.3 L -174.4 136.2 L -175.4 134.8 L -176.6 131.7 L -177.2 129.3 L -177.6 128.6 L -178.3 128.2 L -180.2 127.4 L -180.6 127.1 L -180.8 126.0 L -181.3 124.6 L -182.3 123.8 L -184.0 124.7 L -185.4 123.2 L -186.7 124.4 L -188.1 123.6 L -190.7 120.3 L -194.4 117.2 L -195.5 115.6 L -196.1 115.4 L -197.5 116.1 L -196.6 114.3 L -195.1 112.4 L -193.3 111.2 L -191.8 111.4 L -188.4 114.3 L -188.0 115.1 L -187.4 117.8 L -187.0 118.3 L -176.6 125.8 L -174.6 126.8 L -169.6 128.3 L -168.2 129.3 L -166.8 130.7 L -163.5 133.4 L -162.2 133.9 L -156.4 138.2 L -155.0 138.9 L -153.6 139.4 L -152.1 139.4 L -150.4 138.9 L -151.1 140.9 L -150.6 142.1 L -149.6 143.0 L -149.0 143.9 L -149.4 146.0 L -151.7 148.5 L -152.4 150.3 L -153.3 149.8 L -155.0 147.9 L -155.4 147.5 L -161.7 144.6 L -163.3 144.1 L -165.2 143.9 L -165.4 144.5 L -165.7 144.9 L -166.1 145.3 L -166.6 145.2 L -167.1 144.8 L -168.0 144.4 L -169.1 143.5 L -169.9 143.2 L -172.2 143.4 L -173.0 144.4 L -172.6 145.5 L -171.5 146.1 L -170.4 146.3 L -169.6 146.9 L -168.8 147.7 L -167.9 148.2 L -166.9 148.4 L -164.2 148.2 L -162.3 149.0 L -161.8 150.7 L -162.5 152.4 L -164.2 153.2 L -164.5 154.1 L -163.8 156.0 L -163.0 157.8 L -162.6 158.5 L -161.4 158.7 L -159.3 158.3 L -157.7 158.5 L -158.5 160.3 L -157.5 160.1 L -155.1 158.9 L -154.0 158.2 L -153.1 158.1 L -152.3 156.5 L -151.1 151.0 L -148.6 146.3 L -147.8 145.3 L -145.9 145.0 L -144.1 146.0 L -133.6 158.9 L -132.0 160.3 L -130.4 161.4 L -126.8 163.1 L -121.4 164.3 L -120.1 165.2 L -120.8 166.7 L -118.8 166.7 L -119.4 168.8 L -120.2 169.9 L -121.3 170.2 L -124.8 170.5 L -126.2 171.0 L -127.2 172.0 L -127.6 173.5 L -126.2 176.0 L -121.2 173.4 L -121.5 176.0 L -120.5 175.3 L -120.1 174.3 L -119.9 173.0 L -119.5 171.8 L -120.1 171.8 L -118.8 169.7 L -118.4 168.7 L -118.2 167.4 L -112.2 169.5 L -110.8 169.0 L -110.4 169.2 L -108.8 170.3 L -106.1 170.9 L -105.0 171.0 L -103.5 171.7 L -102.2 173.1 L -101.6 174.6 L -102.3 175.2 L -103.9 175.6 L -109.4 178.1 L -109.1 176.5 L -110.0 175.6 L -110.9 175.6 L -110.8 176.7 L -111.2 178.3 L -109.9 179.0 L -108.0 179.3 L -106.4 179.9 L -104.9 181.1 L -103.3 181.8 L -101.4 182.2 L -99.3 182.3 L -99.3 181.7 L -101.5 181.0 L -102.1 180.5 L -102.7 179.6 L -103.3 178.1 L -103.3 177.4 L -101.4 176.7 L -99.7 176.6 L -97.3 177.3 L -95.2 178.6 L -93.9 180.3 L -93.3 180.3 L -93.3 178.1 L -92.6 178.1 L -93.0 182.3 L -94.1 183.6 L -99.3 183.8 L -99.3 184.5 L -97.3 184.5 L -98.3 185.1 L -97.9 186.6 L -96.9 186.5 L -95.8 186.0 L -94.6 186.0 L -93.8 186.7 L -92.8 188.5 L -91.9 188.8 L -91.4 188.6 L -90.7 188.1 L -90.1 187.5 L -89.9 187.0 L -89.1 186.6 L -88.5 186.7 L -85.1 185.0 L -83.9 184.5 L -85.4 184.0 L -88.7 183.6 L -89.9 183.1 L -91.1 181.7 L -91.4 180.1 L -90.7 178.7 L -89.0 178.1 L -77.2 178.4 L -74.8 179.2 L -73.4 180.3 L -70.2 181.6 L -67.7 183.7 L -66.3 184.6 L -55.8 188.5 L -52.7 190.6 L -52.3 193.1 L -52.0 193.9 L -52.0 196.1 L -51.6 197.4 L -50.7 198.5 L -50.0 198.4 L -49.0 197.4 L -47.4 196.5 L -46.3 196.3 L -44.9 196.6 L -43.9 197.2 L -43.2 198.0 L -42.9 198.9 L -42.9 200.2 L -42.2 200.2 L -42.1 199.7 L -41.7 199.2 L -41.5 198.7 L -40.9 200.3 L -40.0 200.7 L -39.4 199.9 L -39.5 198.0 L -38.7 198.2 L -36.1 198.2 L -34.8 198.0 L -34.2 197.6 L -32.7 196.3 L -31.9 196.0 L -30.6 196.0 L -29.4 196.3 L -28.5 196.8 L -27.6 198.6 L -26.8 198.8 L -26.3 198.3 L -26.8 197.4 L -21.7 193.8 L -21.2 193.9 L -19.7 194.6 L -19.0 195.6 L -18.1 195.7 L -16.4 195.2 L -13.0 195.2 L -10.2 195.6 L -8.3 197.3 L -7.4 200.9 L -3.5 200.1 L -1.3 201.5 L 2.1 206.6 L 0.1 210.9 L -0.5 211.6 L -1.6 212.5 L -2.0 213.1 L -2.2 213.7 L -2.4 215.3 L -2.6 215.9 L -3.4 217.1 L -4.8 218.5 L -6.4 219.4 L -8.0 219.4 L -8.5 218.4 L -8.8 216.8 L -9.5 215.8 L -10.7 216.6 L -11.5 216.1 L -12.1 216.0 L -12.7 216.2 L -13.3 216.6 L -12.5 216.7 L -11.9 216.9 L -11.5 217.3 L -11.3 218.0 L -14.1 218.2 L -14.1 219.5 L -12.8 221.3 L -11.9 223.1 L -11.3 223.1 L -10.2 221.4 L -7.7 220.7 L -4.7 220.5 L -2.6 220.8 L 1.5 222.9 L 2.1 223.4 L 2.2 224.9 L 2.6 225.9 L 3.4 226.6 L 4.8 226.6 L 4.0 229.1 L 2.6 229.1 L 1.1 228.0 L -0.3 227.3 L -1.0 227.1 L -1.3 226.5 L -1.5 225.7 L -2.0 225.1 L -2.7 224.5 L -8.4 225.2 L -10.3 225.8 L -16.7 225.1 L -16.2 226.3 L -16.3 227.6 L -17.3 230.1 L -17.2 230.8 L -17.3 232.1 L -17.6 233.3 L -18.0 234.4 L -17.1 235.3 L -16.0 237.5 L -12.2 239.7 L -10.7 240.2 L -10.0 239.1 L -8.9 236.8 L -4.2 232.9 L -3.2 230.8 L -1.7 232.1 L -0.8 233.7 L -0.6 235.5 L -1.2 237.3 L 1.3 237.0 L 2.2 237.3 L 1.8 238.4 L 1.6 239.4 L 2.6 240.1 L 4.8 240.8 L 4.2 238.5 L 10.0 239.9 L 11.5 238.0 L 12.2 238.0 L 12.6 238.6 L 13.3 239.1 L 14.0 239.7 L 14.9 240.1 L 15.6 238.0 L 14.0 237.3 L 13.1 237.2 L 12.2 237.3 L 13.4 235.7 L 15.7 235.0 L 18.3 234.9 L 20.2 235.2 L 21.9 235.9 L 23.9 237.1 L 24.6 238.3 L 22.3 238.8 L 23.1 240.1 L 23.6 241.5 L 24.3 241.5 L 24.9 240.1 L 25.8 242.4 L 28.2 242.9 L 33.7 242.3 L 32.0 241.1 L 28.3 239.3 L 26.3 238.8 L 27.6 237.4 L 30.0 236.8 L 32.6 236.8 L 34.4 237.3 L 33.7 236.5 L 35.2 236.6 L 39.8 237.6 L 41.0 238.3 L 41.3 239.0 L 39.7 239.4 L 39.7 240.1 L 42.5 240.8 L 42.7 240.3 L 44.2 241.0 L 45.9 240.5 L 47.5 240.6 L 48.4 243.0 L 48.6 242.5 L 49.1 241.5 L 49.1 240.8 L 50.1 241.5 L 50.9 242.0 L 51.8 242.0 L 52.5 241.5 L 51.1 240.1 L 59.0 239.1 L 60.9 239.8 L 61.8 240.3 L 62.8 240.5 L 63.6 240.9 L 63.9 241.9 L 64.6 242.5 L 66.2 242.5 L 68.6 242.3 L 70.2 243.4 L 71.6 244.8 L 73.4 246.0 L 81.2 246.9 L 83.2 247.6 L 84.7 248.6 L 83.8 249.2 L 84.7 251.8 L 84.8 253.0 L 85.5 253.3 L 86.1 253.7 L 86.7 254.2 L 87.3 254.6 L 90.8 255.8 L 91.2 257.1 L 93.1 258.7 L 97.5 261.5 L 98.3 262.4 L 99.4 264.6 L 102.5 268.9 L 103.2 269.4 L 103.5 270.0 L 108.3 275.1 L 109.2 275.5 L 110.6 275.7 L 112.7 276.3 L 115.4 277.9 L 117.5 280.1 L 118.3 282.2 L 119.1 282.2 L 120.4 280.8 L 122.4 280.8 L 124.5 281.3 L 126.4 281.4 L 128.1 280.7 L 129.8 279.6 L 131.6 278.8 L 133.7 278.6 L 134.9 279.0 L 135.9 279.7 L 137.9 281.4 L 141.2 283.6 L 142.4 285.1 L 143.2 286.8 L 143.6 288.7 L 143.8 290.7 L 142.9 293.0 L 140.9 294.3 L 138.8 295.1 L 137.4 296.5 L 135.5 297.7 L 134.8 297.9 L 134.3 298.5 L 133.7 302.2 L 130.6 304.9 L 127.0 304.8 L 122.9 303.7 L 118.3 303.6 L 112.2 304.9 L 108.0 305.2 L 100.0 307.1 L 96.2 306.3 L 93.1 307.6 L 86.9 306.6 L 79.6 307.9 L 77.2 308.1 L 74.7 309.3 L 73.0 310.7 L 71.5 312.3 L 69.8 313.7 L 67.6 314.2 L 65.3 314.3 L 64.0 314.5 L 63.2 315.4 L 62.6 317.5 L 61.0 320.0 L 57.8 321.2 L 54.3 321.6 L 53.8 320.4 L 53.1 320.0 L 52.6 320.2 L 52.3 320.9 L 52.3 321.9 L 49.8 322.7 Z"/>
<path d="M 8.1 229.4 L 9.0 230.2 L 10.4 232.9 L 11.2 234.0 L 11.6 235.3 L 9.7 235.3 L 6.5 234.4 L 4.7 234.1 L 3.2 233.3 L 2.2 232.0 L 2.1 230.1 L 6.9 229.2 L 8.1 229.4 Z"/>
<path d="M 254.9 161.0 L 251.6 162.7 L 250.6 163.7 L 249.7 163.8 L 249.5 162.7 L 249.8 161.4 L 249.1 159.4 L 247.8 157.4 L 247.4 155.3 L 248.4 154.5 L 250.7 153.8 L 252.5 152.7 L 254.3 150.6 L 255.7 149.6 L 256.7 150.1 L 257.8 151.7 L 258.9 152.6 L 260.8 153.6 L 262.8 154.5 L 263.7 155.5 L 263.3 157.6 L 261.4 158.8 L 257.8 159.2 L 256.1 160.8 L 254.9 161.0 Z"/>
<path d="M 241.3 66.2 L 239.6 65.8 L 238.6 65.1 L 238.9 64.1 L 240.6 62.7 L 240.1 62.0 L 240.6 60.5 L 241.1 59.1 L 240.9 58.0 L 241.0 57.1 L 242.0 56.2 L 243.7 58.4 L 244.5 58.9 L 246.0 59.1 L 246.6 58.4 L 247.3 57.9 L 248.0 57.7 L 248.7 57.8 L 250.2 58.2 L 251.0 58.3 L 253.4 59.2 L 258.5 62.6 L 260.8 62.7 L 260.3 62.1 L 259.5 60.5 L 262.7 62.1 L 264.3 62.5 L 265.4 62.0 L 267.0 63.1 L 268.5 63.8 L 270.2 64.0 L 272.5 64.1 L 273.2 64.4 L 273.9 65.1 L 275.2 66.6 L 276.1 67.3 L 278.1 67.3 L 278.9 67.6 L 279.8 69.5 L 279.3 71.6 L 278.1 73.3 L 276.5 74.0 L 274.8 73.5 L 270.2 69.1 L 268.2 67.6 L 266.7 66.7 L 264.9 66.3 L 262.5 66.2 L 261.4 66.3 L 259.9 66.9 L 259.1 67.0 L 258.0 66.8 L 257.3 66.3 L 256.8 65.7 L 256.0 65.5 L 253.9 65.9 L 250.0 68.0 L 247.7 68.4 L 246.6 68.2 L 246.0 67.7 L 245.5 67.2 L 245.0 67.0 L 241.3 66.2 Z"/>
<path d="M 191.5 201.6 L 191.6 199.6 L 190.5 198.2 L 189.4 197.1 L 189.4 196.0 L 192.8 197.6 L 194.8 196.9 L 196.5 196.3 L 197.6 195.4 L 200.7 194.5 L 201.4 192.4 L 203.6 190.5 L 204.5 188.6 L 206.6 189.1 L 208.6 188.0 L 211.4 187.9 L 212.4 187.9 L 213.4 187.4 L 214.4 186.7 L 215.9 184.6 L 216.7 183.7 L 217.0 184.2 L 217.7 186.4 L 219.2 188.2 L 221.2 190.8 L 223.7 192.0 L 229.9 194.0 L 232.1 192.6 L 234.2 191.6 L 239.1 190.3 L 241.4 187.5 L 243.4 183.4 L 248.2 175.8 L 249.7 173.8 L 251.6 172.6 L 253.7 173.5 L 254.4 175.3 L 254.3 177.7 L 252.4 188.8 L 251.6 191.7 L 245.3 199.5 L 242.2 208.7 L 240.1 209.9 L 232.8 213.0 L 228.5 212.3 L 227.3 212.7 L 226.4 213.1 L 224.5 214.5 L 223.8 214.5 L 223.8 213.7 L 224.4 213.2 L 223.0 212.0 L 220.9 211.8 L 215.8 214.7 L 212.4 214.5 L 206.6 215.9 L 202.3 214.1 L 196.0 213.6 L 194.6 213.8 L 193.0 214.6 L 192.6 215.4 L 192.0 216.3 L 191.7 217.1 L 191.0 217.0 L 189.9 216.2 L 188.6 214.8 L 188.3 213.6 L 188.1 211.8 L 188.0 209.5 L 186.3 206.5 L 186.0 206.0 L 186.3 205.2 L 189.2 204.9 L 190.8 203.9 L 191.5 201.6 Z"/>
<path d="M 157.3 35.6 L 156.7 34.9 L 155.3 32.8 L 158.5 33.7 L 159.3 34.1 L 159.6 33.0 L 160.3 32.1 L 161.2 31.7 L 162.0 32.0 L 162.6 31.6 L 163.3 31.4 L 163.3 30.6 L 162.5 30.4 L 161.9 29.8 L 161.3 29.1 L 166.4 29.2 L 168.8 28.8 L 171.4 27.7 L 171.5 28.5 L 172.1 29.1 L 169.8 33.1 L 168.7 34.1 L 168.6 33.1 L 168.3 32.3 L 167.6 31.7 L 166.7 31.4 L 167.1 32.8 L 167.9 34.1 L 168.9 34.8 L 170.1 34.1 L 170.7 35.7 L 171.6 43.4 L 172.2 45.0 L 173.4 47.7 L 171.7 48.1 L 171.0 49.9 L 170.7 52.1 L 170.1 54.1 L 169.1 55.3 L 167.7 56.7 L 166.2 57.9 L 165.0 58.3 L 163.9 59.3 L 160.6 65.5 L 155.5 69.7 L 154.6 70.1 L 153.6 70.2 L 147.6 72.6 L 145.2 73.1 L 143.7 74.5 L 141.2 78.4 L 140.4 79.2 L 137.8 81.4 L 136.8 81.9 L 134.6 82.2 L 132.9 83.2 L 129.7 86.2 L 129.6 85.2 L 129.7 81.6 L 130.2 80.5 L 131.2 80.2 L 135.0 80.5 L 135.9 80.2 L 138.8 77.6 L 138.9 76.9 L 137.9 76.2 L 137.9 75.5 L 139.8 74.3 L 140.5 74.0 L 139.9 73.9 L 139.5 73.7 L 139.2 73.3 L 139.1 72.6 L 141.1 71.8 L 143.9 70.1 L 146.2 69.8 L 146.7 69.4 L 147.8 68.0 L 149.1 67.1 L 149.0 65.8 L 148.6 64.3 L 148.6 63.4 L 150.4 62.7 L 153.1 62.4 L 155.6 61.8 L 156.6 60.1 L 157.0 57.6 L 158.1 56.4 L 159.9 55.9 L 162.0 55.6 L 165.9 54.1 L 168.6 51.7 L 169.5 48.3 L 168.0 44.1 L 165.3 42.2 L 158.4 42.1 L 155.3 40.5 L 153.8 39.1 L 155.2 36.9 L 155.8 36.3 L 156.5 35.9 L 157.3 35.6 Z"/>
<path d="M 128.7 27.7 L 122.4 18.4 L 122.7 18.1 L 123.0 17.4 L 124.2 17.0 L 125.8 16.4 L 126.4 16.3 L 127.6 16.6 L 130.4 18.4 L 131.4 18.7 L 133.5 18.9 L 134.5 19.2 L 137.2 21.4 L 137.5 22.2 L 137.6 24.1 L 137.9 24.8 L 139.4 24.8 L 140.0 25.1 L 140.5 26.3 L 142.4 27.0 L 145.9 27.2 L 148.0 27.7 L 147.2 26.3 L 149.4 26.8 L 155.3 29.1 L 148.0 35.6 L 147.6 34.8 L 146.6 34.1 L 146.7 32.4 L 144.9 32.7 L 142.3 33.5 L 135.1 31.7 L 134.1 30.8 L 132.5 29.1 L 131.9 30.3 L 130.7 31.4 L 129.6 31.9 L 129.0 31.7 L 129.6 29.4 L 129.6 28.2 L 128.7 27.7 Z"/>
<path d="M -19.4 -56.0 L -17.9 -52.8 L -14.2 -50.2 L -6.0 -47.1 L -7.4 -45.6 L -9.6 -46.2 L -14.0 -48.6 L -19.0 -48.9 L -20.9 -49.9 L -20.0 -52.0 L -21.9 -53.3 L -23.7 -55.0 L -25.4 -55.9 L -26.8 -55.0 L -30.2 -58.5 L -33.9 -61.2 L -38.0 -62.5 L -42.9 -62.1 L -42.9 -62.8 L -40.0 -63.6 L -39.5 -63.9 L -39.7 -64.8 L -40.4 -65.7 L -40.3 -66.3 L -41.3 -67.0 L -42.1 -68.2 L -42.3 -69.5 L -41.5 -70.6 L -40.3 -70.4 L -39.5 -70.7 L -38.8 -71.2 L -38.2 -71.3 L -37.5 -71.0 L -37.0 -70.5 L -36.1 -69.2 L -35.0 -68.1 L -33.8 -67.5 L -32.3 -67.2 L -30.2 -67.1 L -30.5 -66.6 L -31.0 -66.0 L -31.5 -65.7 L -25.1 -59.0 L -20.5 -56.4 L -19.4 -56.0 Z"/>
<path d="M 72.6 2.0 L 73.8 3.1 L 74.7 5.8 L 75.2 8.9 L 75.3 13.0 L 75.1 14.1 L 74.5 14.6 L 73.3 14.2 L 72.7 13.5 L 72.0 9.9 L 71.7 10.2 L 70.7 10.6 L 70.1 7.9 L 67.2 3.0 L 66.2 -1.2 L 65.3 -2.7 L 62.0 -6.6 L 61.0 -7.6 L 59.8 -8.2 L 48.5 -10.4 L 46.1 -11.9 L 44.8 -12.9 L 37.8 -17.2 L 36.3 -17.8 L 36.6 -18.8 L 37.1 -19.8 L 37.7 -20.6 L 38.4 -21.5 L 39.0 -21.5 L 40.0 -19.9 L 42.8 -18.6 L 43.8 -17.2 L 41.3 -17.5 L 40.5 -17.8 L 41.1 -16.6 L 42.1 -15.6 L 43.3 -15.0 L 44.5 -15.1 L 45.7 -14.3 L 47.5 -12.7 L 48.4 -12.2 L 49.5 -12.0 L 51.1 -11.8 L 52.1 -12.1 L 51.5 -13.2 L 45.9 -19.3 L 45.1 -21.1 L 45.5 -23.9 L 46.3 -25.9 L 47.2 -27.6 L 47.8 -29.3 L 47.7 -31.7 L 47.0 -34.5 L 45.9 -37.0 L 44.5 -38.6 L 44.1 -38.1 L 43.1 -37.1 L 43.2 -39.6 L 39.5 -42.7 L 39.7 -44.9 L 38.4 -45.3 L 37.2 -45.7 L 36.6 -46.5 L 37.0 -47.8 L 35.0 -49.3 L 34.3 -51.0 L 33.7 -55.7 L 31.7 -60.6 L 30.7 -61.1 L 30.1 -60.9 L 29.4 -60.4 L 28.3 -60.0 L 28.9 -65.0 L 28.4 -66.5 L 26.3 -64.9 L 27.3 -66.3 L 27.7 -66.7 L 28.3 -67.1 L 27.0 -67.5 L 26.2 -66.7 L 25.5 -65.6 L 24.3 -64.9 L 24.3 -65.7 L 25.3 -66.7 L 26.0 -67.9 L 26.4 -69.4 L 26.3 -71.3 L 26.9 -71.2 L 27.4 -70.9 L 27.9 -70.5 L 28.3 -69.9 L 34.0 -60.6 L 35.4 -59.8 L 37.1 -57.8 L 38.8 -55.5 L 39.7 -53.5 L 40.9 -46.4 L 42.1 -44.6 L 43.8 -42.8 L 49.6 -31.8 L 49.5 -30.7 L 50.2 -29.7 L 50.5 -27.5 L 50.5 -22.9 L 51.3 -17.9 L 52.9 -14.7 L 55.7 -12.8 L 64.1 -9.7 L 67.7 -7.0 L 74.0 -0.0 L 73.6 0.5 L 73.1 1.5 L 72.6 2.0 Z"/>
<path d="M 68.6 -73.5 L 73.6 -74.9 L 77.2 -74.8 L 78.5 -74.3 L 80.7 -72.8 L 79.7 -71.1 L 79.0 -69.8 L 78.1 -69.1 L 76.0 -69.2 L 76.0 -68.5 L 76.6 -67.7 L 74.8 -67.7 L 72.5 -68.4 L 71.3 -69.9 L 69.5 -69.1 L 66.3 -69.1 L 64.5 -68.5 L 64.2 -70.9 L 64.8 -72.2 L 66.4 -72.9 L 68.6 -73.5 Z"/>
<path d="M 110.9 -106.3 L 110.1 -105.0 L 108.7 -100.8 L 108.6 -99.9 L 102.1 -99.2 L 102.1 -99.9 L 103.8 -101.9 L 104.9 -105.2 L 105.3 -108.8 L 104.9 -112.0 L 104.9 -114.4 L 106.0 -116.0 L 107.7 -116.9 L 109.6 -117.6 L 110.2 -118.1 L 110.7 -118.6 L 111.3 -119.0 L 111.9 -118.7 L 113.4 -116.1 L 113.8 -114.8 L 114.7 -113.3 L 115.0 -112.7 L 114.9 -111.7 L 114.4 -109.7 L 114.3 -108.7 L 110.2 -101.9 L 110.0 -103.1 L 110.1 -104.2 L 110.9 -106.3 Z"/>
<path d="M -84.6 -126.2 L -86.5 -126.2 L -87.6 -126.8 L -91.7 -131.9 L -92.6 -133.4 L -92.6 -134.7 L -91.1 -133.9 L -90.2 -132.6 L -89.6 -131.1 L -88.6 -129.8 L -87.5 -128.9 L -86.4 -128.4 L -85.5 -127.7 L -84.6 -126.2 Z"/>
<path d="M -188.7 -97.0 L -187.9 -95.6 L -188.5 -91.6 L -188.0 -89.9 L -189.7 -86.2 L -191.0 -85.5 L -193.4 -86.3 L -193.1 -85.0 L -191.3 -83.5 L -190.7 -82.0 L -190.9 -80.6 L -191.4 -79.1 L -192.1 -77.8 L -192.7 -77.0 L -195.8 -76.0 L -198.2 -77.0 L -200.3 -78.5 L -202.8 -79.2 L -201.1 -77.2 L -201.1 -76.3 L -202.0 -74.9 L -202.8 -74.9 L -204.4 -77.1 L -207.3 -77.9 L -213.5 -77.7 L -210.2 -79.2 L -210.7 -80.9 L -208.6 -80.9 L -203.4 -79.2 L -202.8 -81.0 L -201.9 -82.4 L -200.5 -83.4 L -195.2 -85.8 L -193.7 -86.9 L -193.7 -88.1 L -195.5 -88.8 L -197.2 -87.8 L -198.9 -86.4 L -200.5 -85.6 L -206.2 -82.0 L -205.8 -81.7 L -205.5 -81.4 L -207.9 -81.6 L -210.2 -84.9 L -212.2 -85.6 L -205.8 -87.9 L -202.5 -89.8 L -202.0 -92.0 L -203.5 -90.5 L -205.4 -89.9 L -210.6 -89.9 L -212.0 -89.6 L -213.2 -89.1 L -214.3 -88.8 L -215.6 -89.1 L -216.4 -89.9 L -216.9 -91.2 L -218.4 -98.2 L -218.5 -100.8 L -217.9 -101.9 L -219.3 -102.4 L -219.4 -103.6 L -219.0 -105.0 L -219.0 -106.3 L -220.1 -107.5 L -221.4 -108.3 L -222.2 -109.0 L -221.6 -109.8 L -221.6 -110.5 L -223.5 -111.7 L -229.6 -114.1 L -229.0 -114.9 L -228.3 -115.6 L -226.9 -114.7 L -226.4 -115.0 L -226.3 -115.7 L -226.3 -117.2 L -226.5 -117.7 L -225.7 -119.1 L -224.7 -119.6 L -222.1 -120.4 L -221.0 -121.3 L -220.6 -122.1 L -219.9 -124.7 L -219.6 -125.5 L -216.2 -125.7 L -214.9 -126.2 L -214.0 -127.1 L -213.6 -127.7 L -213.4 -128.5 L -212.8 -129.8 L -211.3 -131.0 L -207.3 -132.6 L -206.2 -134.0 L -203.4 -135.5 L -202.5 -134.1 L -201.8 -132.5 L -201.0 -131.1 L -199.8 -130.5 L -199.1 -129.9 L -200.1 -128.7 L -206.1 -123.8 L -208.5 -122.5 L -211.5 -122.0 L -211.5 -121.3 L -209.8 -121.1 L -209.1 -120.3 L -209.5 -119.5 L -211.2 -119.1 L -211.6 -118.6 L -210.6 -117.7 L -208.2 -116.2 L -206.6 -116.9 L -206.1 -115.7 L -206.4 -113.9 L -208.0 -110.9 L -208.3 -109.5 L -208.8 -108.4 L -210.2 -107.7 L -208.4 -107.2 L -206.8 -108.5 L -203.8 -114.6 L -201.7 -116.8 L -200.8 -118.3 L -200.4 -120.4 L -200.3 -123.0 L -199.9 -125.5 L -198.8 -127.0 L -196.8 -126.7 L -195.4 -124.6 L -194.2 -122.0 L -193.1 -120.2 L -191.8 -118.7 L -191.1 -117.1 L -190.8 -115.3 L -190.6 -111.8 L -190.1 -109.6 L -190.0 -108.7 L -190.1 -107.5 L -190.6 -105.5 L -190.7 -104.5 L -190.4 -103.9 L -189.0 -101.9 L -188.7 -100.9 L -189.0 -99.7 L -189.7 -98.9 L -190.4 -98.3 L -190.7 -98.0 L -191.7 -97.6 L -193.9 -97.5 L -195.8 -96.8 L -196.1 -94.1 L -192.7 -96.5 L -190.7 -97.4 L -188.7 -97.0 Z"/>
<path d="M 28.0 -126.6 L 28.7 -125.1 L 30.3 -119.1 L 25.9 -120.5 L 23.9 -120.7 L 21.6 -120.5 L 17.1 -119.6 L 15.6 -118.8 L 13.9 -117.3 L 11.5 -117.1 L 8.8 -118.8 L 7.7 -120.9 L 9.8 -122.0 L 11.3 -122.3 L 13.4 -123.3 L 15.3 -124.7 L 16.3 -126.2 L 18.2 -126.2 L 19.0 -129.0 L 18.6 -132.4 L 16.6 -134.0 L 13.7 -134.6 L 11.7 -136.2 L 6.5 -144.5 L 5.7 -147.4 L 3.8 -150.1 L 3.4 -151.5 L 2.8 -154.8 L 1.1 -157.3 L -1.4 -158.8 L -4.6 -159.0 L -4.3 -160.1 L -4.2 -161.4 L -4.3 -162.7 L -4.6 -163.9 L -5.2 -165.2 L -5.7 -165.7 L -6.3 -166.0 L -10.7 -169.7 L -13.8 -171.2 L -14.7 -171.8 L -15.4 -172.7 L -15.4 -173.5 L -15.0 -174.3 L -13.0 -176.7 L -12.1 -177.0 L -10.7 -176.8 L -10.0 -176.4 L -7.4 -173.9 L -4.8 -173.0 L -3.7 -172.3 L -2.6 -171.1 L -1.8 -164.5 L -1.2 -162.5 L -0.3 -161.4 L 1.3 -160.0 L 2.7 -158.4 L 3.9 -155.1 L 6.6 -150.3 L 12.2 -142.5 L 13.9 -141.2 L 17.7 -139.1 L 19.6 -137.6 L 22.0 -132.7 L 22.6 -131.9 L 23.7 -131.2 L 28.0 -126.6 Z"/>
<path d="M -184.3 -207.1 L -185.8 -207.9 L -187.7 -208.1 L -189.5 -208.1 L -190.7 -208.2 L -192.3 -210.0 L -191.3 -212.0 L -188.9 -213.7 L -186.7 -214.6 L -185.3 -214.8 L -182.0 -216.0 L -180.5 -216.2 L -176.3 -216.0 L -172.1 -216.8 L -170.6 -216.7 L -169.2 -216.3 L -166.9 -214.9 L -163.1 -214.1 L -164.2 -212.8 L -174.5 -208.2 L -176.8 -208.2 L -180.0 -209.6 L -180.5 -208.7 L -181.7 -207.4 L -183.0 -206.7 L -184.3 -207.1 Z"/>
<path d="M -55.0 -225.2 L -52.1 -223.4 L -50.8 -221.9 L -50.3 -220.0 L -51.1 -211.1 L -51.5 -209.5 L -51.6 -208.6 L -52.0 -207.5 L -52.9 -206.8 L -53.9 -206.4 L -54.4 -206.1 L -54.7 -204.1 L -54.3 -202.2 L -53.0 -199.6 L -52.6 -197.8 L -53.0 -192.9 L -53.5 -190.8 L -55.8 -187.2 L -56.4 -185.7 L -56.6 -178.5 L -56.3 -174.4 L -55.0 -171.1 L -58.3 -172.5 L -60.0 -175.8 L -61.0 -179.6 L -62.4 -182.5 L -64.0 -183.6 L -68.3 -185.3 L -70.1 -186.4 L -72.2 -188.8 L -71.9 -189.7 L -70.3 -189.8 L -60.7 -188.3 L -60.1 -188.5 L -59.6 -189.2 L -59.2 -190.0 L -58.7 -190.7 L -57.1 -192.3 L -56.6 -193.2 L -56.4 -194.6 L -56.4 -197.0 L -57.2 -196.5 L -58.4 -194.8 L -59.4 -193.9 L -60.0 -195.0 L -59.9 -197.7 L -59.0 -202.5 L -58.5 -204.2 L -58.2 -204.6 L -57.6 -205.3 L -54.8 -207.8 L -54.4 -208.6 L -53.6 -214.5 L -53.6 -216.7 L -55.4 -221.5 L -58.5 -224.1 L -62.0 -225.8 L -65.1 -228.2 L -73.2 -239.6 L -75.6 -241.6 L -79.4 -242.9 L -87.2 -244.5 L -91.3 -246.5 L -97.2 -252.0 L -101.0 -253.1 L -103.2 -253.3 L -107.2 -254.3 L -109.1 -254.5 L -111.2 -254.0 L -114.6 -252.1 L -116.1 -252.4 L -113.7 -254.8 L -112.3 -258.9 L -110.8 -266.6 L -111.4 -266.6 L -108.1 -266.7 L -106.5 -266.5 L -105.4 -265.9 L -106.5 -264.3 L -107.0 -262.7 L -107.0 -260.9 L -106.8 -258.7 L -105.2 -260.7 L -104.1 -259.7 L -103.2 -257.7 L -102.3 -256.6 L -100.4 -256.1 L -88.0 -246.9 L -84.4 -244.9 L -79.9 -243.8 L -75.3 -243.7 L -73.7 -243.2 L -72.1 -242.0 L -67.1 -235.2 L -61.1 -229.7 L -55.0 -225.2 Z"/>
<path d="M -12.0 82.9 L -11.6 83.6 L -11.2 85.0 L -12.0 85.8 L -13.2 85.8 L -14.0 84.9 L -14.6 83.5 L -14.7 82.7 L -13.6 82.8 L -13.0 83.2 L -13.1 82.6 L -13.7 80.8 L -12.9 81.3 L -12.0 82.9 Z"/>
<path d="M 401.2 134.6 L 399.1 133.4 L 394.8 131.5 L 393.1 129.6 L 393.5 129.3 L 394.3 128.9 L 394.5 128.3 L 397.7 130.4 L 399.5 131.1 L 401.9 131.7 L 403.8 132.6 L 405.7 134.1 L 406.7 136.2 L 405.9 138.9 L 404.8 139.1 L 403.4 137.8 L 401.2 134.6 Z"/>
<path d="M 372.3 126.1 L 369.8 126.3 L 369.1 125.7 L 368.2 124.0 L 367.8 122.8 L 367.6 119.0 L 368.4 119.0 L 369.2 119.2 L 370.0 119.5 L 371.6 120.6 L 372.6 120.7 L 373.5 120.4 L 374.3 120.3 L 380.4 121.1 L 383.2 120.5 L 384.4 120.5 L 385.7 121.1 L 386.7 122.4 L 389.1 127.5 L 387.4 126.9 L 386.4 125.5 L 385.5 123.8 L 384.4 122.5 L 385.2 124.8 L 387.0 128.5 L 387.7 130.4 L 386.4 130.6 L 385.4 130.0 L 383.7 127.5 L 383.1 128.5 L 382.4 129.0 L 380.8 126.1 L 378.3 125.3 L 372.3 126.1 Z"/>
<path d="M 319.9 124.7 L 319.6 123.3 L 320.6 120.1 L 320.5 118.3 L 322.8 119.4 L 328.9 125.0 L 330.2 125.5 L 332.1 125.5 L 334.0 125.2 L 335.3 124.7 L 336.7 123.4 L 337.5 122.3 L 338.6 122.0 L 340.7 123.2 L 340.7 124.0 L 338.1 126.5 L 337.3 127.5 L 336.8 126.0 L 336.7 125.3 L 334.0 126.8 L 334.7 127.0 L 335.3 127.5 L 333.9 128.2 L 331.4 127.9 L 330.0 128.3 L 330.0 126.8 L 326.1 129.9 L 324.3 130.1 L 323.2 127.5 L 323.8 127.5 L 324.4 128.4 L 325.4 128.8 L 326.1 128.6 L 326.0 127.5 L 325.4 126.9 L 321.9 125.3 L 322.3 126.8 L 322.0 127.8 L 321.2 128.6 L 319.9 129.0 L 319.7 128.3 L 319.7 127.4 L 319.9 126.8 L 320.0 127.2 L 320.5 127.5 L 320.9 126.1 L 322.2 123.9 L 322.6 122.5 L 320.4 124.1 L 319.9 124.7 Z"/>
<path d="M 350.8 113.9 L 350.4 112.9 L 350.5 111.9 L 350.5 111.0 L 349.4 110.4 L 349.8 109.6 L 350.4 108.9 L 351.2 108.5 L 352.1 108.2 L 357.8 108.2 L 358.4 108.4 L 359.8 108.9 L 360.5 109.0 L 361.7 109.4 L 361.9 110.2 L 361.6 111.8 L 362.4 117.9 L 363.9 120.0 L 366.9 120.3 L 365.0 121.9 L 363.3 121.5 L 361.8 120.3 L 360.5 119.7 L 359.7 119.4 L 358.5 118.8 L 357.4 117.8 L 356.8 116.8 L 356.9 115.5 L 358.4 113.0 L 358.8 111.8 L 358.1 110.0 L 356.5 110.9 L 354.1 113.6 L 353.7 114.4 L 352.8 114.6 L 351.7 114.4 L 350.8 113.9 Z"/>
<path d="M 402.1 148.8 L 402.3 149.4 L 402.2 152.9 L 402.3 155.2 L 401.5 156.6 L 399.9 157.1 L 398.3 156.1 L 398.1 154.3 L 399.2 153.5 L 400.4 153.6 L 401.1 153.1 L 401.1 150.6 L 401.8 148.8 Z"/>
<path d="M 759.2 508.1 L 760.4 509.1 L 760.4 509.9 L 759.8 510.6 L 758.8 512.4 L 758.4 512.9 L 758.1 513.3 L 758.0 514.2 L 757.5 514.5 L 756.6 514.6 L 755.7 514.5 L 755.3 514.2 L 754.6 513.2 L 751.8 511.7 L 751.2 510.2 L 751.8 508.7 L 753.0 508.1 L 758.6 507.9 L 759.2 508.1 Z"/>
<path d="M 1005.1 508.1 L 1004.3 507.2 L 1002.8 507.6 L 1001.0 508.4 L 993.3 510.2 L 991.7 510.9 L 989.7 510.3 L 986.7 510.7 L 983.8 510.3 L 982.3 507.3 L 983.8 507.3 L 986.3 507.2 L 988.2 506.4 L 990.0 505.3 L 991.4 504.2 L 992.3 503.7 L 1000.1 502.4 L 1001.4 502.6 L 1004.8 503.8 L 1009.9 504.0 L 1011.2 504.5 L 1012.2 505.8 L 1011.5 506.1 L 1008.8 506.0 L 1008.2 506.2 L 1006.3 507.5 L 1005.8 508.1 L 1005.1 508.1 Z"/>
<path d="M 1011.9 491.0 L 1010.5 488.8 L 1006.4 485.0 L 1008.9 484.6 L 1011.7 485.2 L 1014.1 486.3 L 1015.2 488.1 L 1013.9 488.1 L 1014.6 488.9 L 1013.5 488.9 L 1012.7 488.7 L 1012.2 488.2 L 1011.9 487.4 L 1011.2 487.4 L 1012.1 489.1 L 1012.3 490.0 L 1011.9 491.0 Z"/>
<path d="M 977.6 491.0 L 977.2 492.3 L 977.9 493.0 L 978.7 493.4 L 980.0 492.7 L 979.7 493.6 L 980.0 494.4 L 981.2 496.0 L 980.2 496.8 L 980.0 497.6 L 979.2 497.7 L 978.2 496.2 L 977.1 496.2 L 976.8 497.3 L 977.7 498.6 L 976.8 499.4 L 975.6 499.2 L 974.0 498.3 L 972.3 498.9 L 970.5 499.8 L 968.5 500.3 L 966.9 501.0 L 965.2 502.7 L 961.7 508.2 L 961.5 510.9 L 960.1 512.7 L 959.6 513.0 L 957.3 513.5 L 956.8 514.2 L 957.8 517.2 L 955.9 519.0 L 952.2 521.3 L 947.1 523.1 L 944.9 523.0 L 942.7 522.6 L 940.7 522.4 L 939.5 522.6 L 936.6 523.8 L 935.9 523.9 L 932.9 523.8 L 930.9 524.3 L 925.2 527.4 L 924.0 527.5 L 922.9 527.4 L 921.9 527.5 L 921.2 528.0 L 920.7 527.4 L 920.5 526.6 L 921.6 526.3 L 921.9 525.8 L 921.5 525.2 L 920.5 524.5 L 918.6 526.2 L 917.5 526.5 L 916.1 526.2 L 913.4 525.9 L 912.5 525.7 L 912.0 525.1 L 911.6 524.4 L 911.1 523.8 L 909.9 523.1 L 909.0 522.9 L 907.4 523.0 L 905.1 523.6 L 902.3 525.5 L 900.3 525.3 L 898.4 523.8 L 896.8 521.9 L 895.2 520.8 L 893.4 521.2 L 892.0 521.4 L 890.9 521.9 L 889.5 522.2 L 886.3 522.4 L 885.3 522.9 L 884.3 523.6 L 883.1 523.8 L 881.5 523.0 L 880.9 523.5 L 880.1 523.8 L 879.5 522.6 L 877.8 522.5 L 873.8 523.0 L 873.0 522.8 L 870.1 521.7 L 866.1 521.7 L 866.2 520.2 L 865.3 519.8 L 864.0 520.1 L 862.7 520.9 L 862.7 521.7 L 864.1 521.7 L 862.9 523.2 L 861.0 524.3 L 858.8 524.9 L 856.7 525.3 L 853.7 525.2 L 852.2 525.3 L 851.1 525.2 L 850.2 525.7 L 850.0 526.4 L 850.0 527.4 L 848.1 527.2 L 846.7 526.2 L 844.5 523.8 L 842.6 523.7 L 840.3 523.3 L 838.0 523.3 L 836.6 522.9 L 835.2 524.1 L 833.6 524.9 L 832.2 525.3 L 831.0 525.1 L 827.6 524.7 L 825.4 523.5 L 824.4 524.4 L 825.1 526.8 L 824.0 526.7 L 822.6 524.5 L 822.1 523.5 L 822.1 520.6 L 824.5 519.5 L 825.2 519.1 L 826.1 518.9 L 826.8 518.5 L 827.1 517.7 L 826.7 517.1 L 825.8 516.6 L 824.5 516.9 L 823.2 516.3 L 823.3 514.4 L 824.0 513.4 L 824.9 512.7 L 824.5 511.6 L 824.1 509.9 L 825.2 508.8 L 825.1 505.5 L 826.1 501.7 L 826.9 500.9 L 827.7 500.1 L 828.2 498.9 L 827.6 497.8 L 826.4 496.6 L 824.8 491.7 L 823.9 489.7 L 821.7 489.3 L 819.9 488.8 L 818.4 485.8 L 817.4 484.3 L 816.6 482.4 L 816.8 481.7 L 819.6 480.8 L 821.8 479.9 L 823.7 479.1 L 825.1 478.2 L 827.5 476.2 L 827.6 473.9 L 826.6 472.1 L 826.5 469.5 L 828.3 467.1 L 833.2 465.7 L 838.4 465.8 L 841.9 467.4 L 852.2 469.5 L 862.4 468.2 L 863.8 468.4 L 867.5 469.7 L 868.9 469.8 L 872.8 468.9 L 878.3 468.4 L 880.9 468.7 L 883.5 469.7 L 885.2 469.4 L 891.5 469.4 L 895.3 470.6 L 903.7 468.9 L 911.4 471.3 L 915.9 469.9 L 921.1 471.6 L 922.2 470.8 L 923.4 471.0 L 924.1 471.9 L 924.5 472.5 L 925.3 472.9 L 926.3 472.3 L 927.1 471.3 L 928.0 471.6 L 927.7 472.9 L 929.6 473.9 L 929.9 475.0 L 930.5 476.3 L 932.0 476.4 L 935.3 475.4 L 935.3 474.6 L 933.6 474.4 L 931.9 473.5 L 930.5 472.0 L 929.3 470.8 L 935.7 472.8 L 937.3 473.2 L 938.4 473.5 L 940.0 473.8 L 941.4 473.2 L 942.3 471.9 L 944.5 472.3 L 949.0 473.6 L 950.5 472.6 L 951.7 472.8 L 952.9 473.8 L 956.0 474.5 L 957.8 475.4 L 959.5 477.3 L 960.6 476.8 L 961.4 475.8 L 961.9 476.0 L 962.0 476.5 L 961.5 477.1 L 961.1 477.9 L 961.9 477.7 L 962.9 477.3 L 963.5 476.9 L 965.2 479.4 L 966.9 480.3 L 968.2 479.3 L 970.8 481.4 L 974.2 481.9 L 975.9 480.7 L 976.7 479.9 L 977.5 479.4 L 978.3 479.6 L 978.3 480.3 L 977.4 485.4 L 977.2 489.8 L 977.6 491.0 Z"/>
<path d="M -65.1 518.7 L -64.4 520.4 L -63.6 522.3 L -62.2 524.8 L -60.3 526.8 L -57.6 528.8 L -58.7 529.7 L -63.7 530.9 L -67.3 532.9 L -69.3 533.5 L -71.1 533.1 L -70.4 532.6 L -70.1 532.2 L -69.8 530.9 L -71.5 531.6 L -73.1 534.0 L -74.8 534.5 L -76.3 534.1 L -78.1 533.2 L -79.9 532.8 L -82.8 533.9 L -90.5 534.6 L -96.0 533.7 L -96.8 533.8 L -97.5 533.9 L -98.3 533.8 L -99.3 533.1 L -99.8 532.1 L -100.0 530.9 L -100.3 529.9 L -101.0 529.5 L -101.8 529.2 L -102.3 528.6 L -102.8 527.9 L -103.4 527.4 L -106.4 526.7 L -107.1 526.3 L -108.6 525.6 L -110.6 525.8 L -114.2 526.6 L -115.7 526.8 L -120.8 526.6 L -120.8 525.9 L -110.0 525.3 L -110.7 524.6 L -111.2 524.1 L -112.5 523.8 L -115.5 523.8 L -117.5 523.8 L -119.5 522.6 L -121.3 521.4 L -122.5 520.8 L -122.8 521.9 L -123.3 523.0 L -124.5 524.4 L -124.9 525.2 L -126.2 525.0 L -126.6 525.8 L -127.0 528.2 L -128.7 534.5 L -130.0 536.3 L -131.6 537.3 L -132.9 537.3 L -133.7 537.0 L -134.5 536.4 L -135.6 536.0 L -141.0 536.0 L -141.0 535.2 L -138.9 534.5 L -140.0 533.6 L -141.3 531.8 L -142.4 530.9 L -143.5 530.5 L -146.4 530.2 L -148.9 531.1 L -151.1 532.4 L -152.8 535.6 L -153.1 536.6 L -152.4 539.5 L -153.1 539.8 L -154.4 540.5 L -155.1 540.8 L -154.8 541.4 L -154.6 542.4 L -154.4 543.1 L -155.5 542.6 L -156.5 542.6 L -157.5 542.9 L -158.5 543.7 L -156.8 544.8 L -154.9 545.2 L -153.0 545.0 L -151.1 544.4 L -150.1 548.3 L -150.4 550.1 L -152.8 550.9 L -154.8 550.8 L -156.6 550.4 L -158.4 549.5 L -166.9 541.8 L -168.7 539.5 L -176.0 535.2 L -178.2 534.4 L -180.5 534.1 L -182.3 534.9 L -184.4 536.3 L -186.5 536.5 L -190.7 535.2 L -194.9 534.5 L -208.2 535.3 L -208.9 535.1 L -210.9 533.7 L -214.4 532.0 L -215.3 531.3 L -215.7 530.5 L -216.7 527.9 L -216.9 527.0 L -217.3 526.3 L -219.0 525.7 L -219.6 525.3 L -219.7 523.1 L -219.5 520.5 L -220.2 518.3 L -222.6 517.3 L -229.4 517.3 L -231.0 516.7 L -233.3 511.2 L -234.1 510.1 L -234.9 509.5 L -235.9 509.0 L -236.7 508.8 L -237.3 508.3 L -237.8 507.0 L -238.4 504.5 L -240.2 500.8 L -242.7 499.4 L -249.9 499.6 L -254.3 498.8 L -255.9 498.8 L -256.8 499.7 L -257.6 500.1 L -258.2 499.9 L -260.7 499.0 L -262.3 498.6 L -265.3 497.6 L -267.0 497.4 L -268.7 496.9 L -270.4 495.8 L -271.6 494.2 L -272.0 492.4 L -271.5 491.5 L -270.0 490.5 L -269.3 489.6 L -269.1 488.3 L -269.2 485.1 L -269.0 484.2 L -268.3 483.0 L -268.2 482.2 L -267.8 481.8 L -266.3 481.7 L -265.4 481.1 L -264.6 479.8 L -263.6 479.0 L -261.9 479.6 L -260.9 476.6 L -257.9 473.8 L -254.4 472.7 L -251.9 474.6 L -250.4 472.9 L -248.9 472.8 L -247.1 473.5 L -244.8 473.9 L -238.5 473.2 L -236.4 473.2 L -235.3 473.6 L -234.6 473.8 L -233.5 474.1 L -232.3 473.9 L -231.4 473.2 L -231.3 472.6 L -231.3 471.8 L -230.7 470.7 L -228.5 467.8 L -227.5 466.9 L -225.7 466.1 L -221.8 465.4 L -217.3 465.6 L -209.4 467.3 L -202.4 468.9 L -192.9 469.0 L -188.7 470.1 L -181.9 470.6 L -179.3 471.2 L -177.3 472.5 L -174.2 471.6 L -169.1 471.7 L -164.0 472.2 L -160.4 473.2 L -160.0 473.6 L -159.6 474.9 L -159.1 475.4 L -158.0 475.1 L -157.7 474.8 L -153.4 475.4 L -152.9 475.7 L -151.2 477.2 L -150.7 477.5 L -147.5 477.6 L -144.2 477.0 L -142.4 476.7 L -141.2 477.0 L -139.1 478.0 L -138.0 478.2 L -132.2 478.0 L -131.0 477.4 L -129.4 477.2 L -128.1 477.3 L -127.0 477.5 L -126.3 478.4 L -126.6 479.5 L -126.6 480.9 L -125.5 481.9 L -122.0 484.1 L -118.9 485.9 L -118.4 486.9 L -117.5 489.6 L -116.9 490.5 L -116.0 491.1 L -114.2 491.6 L -109.1 492.0 L -107.4 492.4 L -106.0 493.2 L -104.1 495.1 L -102.7 496.0 L -101.0 496.5 L -97.8 496.3 L -96.1 497.6 L -95.5 497.7 L -95.0 498.2 L -94.4 498.6 L -93.6 498.8 L -86.2 498.8 L -85.7 499.1 L -85.0 500.6 L -84.6 501.1 L -77.4 502.4 L -73.6 503.8 L -73.2 506.0 L -70.4 508.7 L -68.2 511.8 L -65.1 518.7 Z"/>
</g>
<g fill="none" stroke-linejoin="round" stroke-linecap="round">
<path d="M 1049.0 332.8 L 921.6 291.2 L 745.1 249.6 L 549.0 208.0 L 382.4 176.8 L 254.9 145.6 L 117.6 104.0 L -19.6 41.6" stroke="#EFA867" stroke-opacity="0.62" stroke-width="1.6"/>
<path d="M 1029.4 468.0 L 911.8 384.8 L 794.1 332.8 L 686.3 280.8 L 588.2 228.8 L 490.2 176.8 L 392.2 124.8 L 284.3 52.0 L 166.7 -20.8" stroke="#D8B98A" stroke-opacity="0.62" stroke-width="1.6"/>
<path d="M 568.6 208.0 L 470.6 208.0 L 362.7 197.6 L 274.5 187.2 L 166.7 145.6 L 78.4 135.2 L -29.4 104.0" stroke="#D8B98A" stroke-opacity="0.62" stroke-width="1.6"/>
<path d="M 1009.8 624.0 L 911.8 592.8 L 813.7 561.6 L 715.7 530.4 L 627.5 499.2 L 549.0 478.4 L 451.0 457.6" stroke="#D8B98A" stroke-opacity="0.62" stroke-width="1.6"/>
<path d="M 774.5 738.4 L 637.3 655.2 L 509.8 540.8 L 451.0 488.8 L 402.0 416.0" stroke="#D8B98A" stroke-opacity="0.62" stroke-width="1.6"/>
<path d="M 951.0 530.4 L 813.7 436.8 L 676.5 332.8 L 549.0 218.4 L 411.8 104.0 L 284.3 0.0" stroke="#E5C289" stroke-opacity="0.62" stroke-width="1.6"/>
<path d="M 1029.4 561.6 L 951.0 520.0 L 921.6 499.2 L 843.1 457.6 L 784.3 416.0 L 725.5 374.4 L 666.7 322.4 L 598.0 260.0 L 549.0 228.8 L 500.0 187.2 L 460.8 114.4 L 431.4 20.8" stroke="#EFA867" stroke-opacity="0.62" stroke-width="1.6"/>
<path d="M 1039.2 540.8 L 960.8 509.6 L 911.8 499.2 L 803.9 520.0 L 696.1 499.2 L 676.5 499.2 L 578.4 457.6 L 470.6 436.8 L 343.1 416.0 L 225.5 384.8 L 127.5 332.8 L 107.8 301.6 L 68.6 260.0 L -39.2 228.8" stroke="#E5C289" stroke-opacity="0.62" stroke-width="1.6"/>
<path d="M 1019.6 696.8 L 921.6 665.6 L 813.7 644.8 L 715.7 624.0 L 637.3 603.2 L 578.4 530.4 L 509.8 436.8 L 352.9 384.8 L 186.3 343.2 M 39.2 176.8 L 9.8 114.4" stroke="#EE8654" stroke-opacity="0.62" stroke-width="1.6"/>
<path d="M 921.6 395.2 L 784.3 343.2 L 647.1 291.2 L 509.8 239.2 L 372.5 197.6 L 254.9 156.0 L 235.3 156.0 L 88.2 124.8 L -39.2 104.0" stroke="#E4614A" stroke-opacity="0.62" stroke-width="1.6"/>
<path d="M 1039.2 696.8 L 980.4 665.6 L 931.4 613.6 L 852.9 520.0 L 764.7 488.8 L 705.9 426.4 L 656.9 364.0 L 598.0 301.6 L 539.2 218.4 L 490.2 145.6 L 441.2 72.8 L 411.8 0.0" stroke="#E5C289" stroke-opacity="0.62" stroke-width="1.6"/>
<path d="M 29.4 499.2 L 107.8 416.0 L 205.9 353.6 L 343.1 301.6 L 509.8 249.6 L 696.1 208.0 L 911.8 176.8" stroke="#E5C289" stroke-opacity="0.62" stroke-width="1.6"/>
<path d="M 1049.0 561.6 L 951.0 520.0 L 843.1 468.0 L 745.1 416.0 L 656.9 353.6 L 578.4 291.2 L 509.8 218.4 L 431.4 124.8 L 343.1 52.0 L 264.7 -20.8" stroke="#EFA867" stroke-opacity="0.62" stroke-width="1.6"/>
<path d="M 431.4 322.4 L 284.3 260.0 L 215.7 218.4 L 156.9 176.8 L 49.0 93.6 L -29.4 10.4" stroke="#D8B98A" stroke-opacity="0.62" stroke-width="1.6"/>
<path d="M 951.0 499.2 L 843.1 426.4 L 745.1 384.8 L 666.7 343.2 L 578.4 301.6 L 490.2 270.4 L 431.4 239.2 L 362.7 208.0 L 303.9 176.8 L 225.5 114.4 L 156.9 62.4 L 127.5 31.2 L 49.0 -52.0" stroke="#D8B98A" stroke-opacity="0.62" stroke-width="1.6"/>
<path d="M 529.4 280.8 L 421.6 260.0 L 303.9 270.4 L 196.1 291.2 L 137.3 291.2" stroke="#D8B98A" stroke-opacity="0.62" stroke-width="1.6"/>
<path d="M 921.6 603.2 L 852.9 540.8 L 833.3 520.0 L 764.7 509.6 L 705.9 499.2 L 696.1 478.4 L 656.9 436.8 L 598.0 364.0 L 539.2 291.2 L 480.4 228.8 L 441.2 166.4 L 431.4 156.0 L 382.4 72.8 L 372.5 10.4 L 372.5 -52.0" stroke="#EFA867" stroke-opacity="0.62" stroke-width="1.6"/>
<path d="M 960.8 613.6 L 833.3 530.4 L 725.5 447.2 L 617.6 364.0 L 519.6 291.2 L 421.6 208.0 L 313.7 124.8 L 205.9 52.0 L 117.6 -10.4" stroke="#D8B98A" stroke-opacity="0.92" stroke-width="2.4"/>
<path d="M 480.4 301.6 L 352.9 260.0 L 264.7 208.0 L 186.3 156.0 L 127.5 114.4 L 58.8 52.0 L 9.8 10.4 L -19.6 -20.8" stroke="#D8B98A" stroke-opacity="0.92" stroke-width="2.4"/>
<path d="M 951.0 520.0 L 852.9 478.4 L 745.1 426.4 L 647.1 374.4 L 549.0 322.4 L 470.6 239.2 L 382.4 156.0 L 284.3 83.2 L 176.5 10.4" stroke="#EE8654" stroke-opacity="0.92" stroke-width="2.4"/>
<path d="M 921.6 520.0 L 813.7 457.6 L 735.3 426.4 L 656.9 384.8 L 568.6 343.2 L 490.2 301.6 L 411.8 270.4 L 333.3 239.2 L 254.9 208.0 L 186.3 166.4 L 107.8 104.0 L 29.4 52.0 L -39.2 0.0" stroke="#EFA867" stroke-opacity="0.92" stroke-width="2.4"/>
<path d="M 1039.2 426.4 L 960.8 405.6 L 882.4 395.2 L 803.9 364.0 L 735.3 343.2 L 666.7 322.4 L 588.2 312.0 L 519.6 301.6 L 460.8 270.4 L 392.2 239.2 L 343.1 208.0 L 254.9 166.4 L 196.1 114.4 L 156.9 52.0 L 117.6 -20.8" stroke="#D8B98A" stroke-opacity="0.92" stroke-width="2.4"/>
<path d="M 1029.4 634.4 L 941.2 572.0 L 852.9 509.6 L 764.7 457.6 L 686.3 416.0 L 627.5 384.8 L 558.8 343.2 L 490.2 312.0 L 411.8 280.8 L 333.3 249.6 L 245.1 218.4 L 166.7 187.2 L 88.2 156.0 L 19.6 124.8" stroke="#E5C289" stroke-opacity="0.92" stroke-width="2.4"/>
<path d="M 705.9 364.0 L 627.5 353.6" stroke="#D8B98A" stroke-opacity="0.92" stroke-width="2.4"/>
</g>
<path d="M 507.8 291.3 L 510.3 291.4 L 512.7 291.6 L 515.2 291.9 L 517.6 292.3 L 520.0 292.9 L 522.3 293.6 L 524.6 294.4 L 526.9 295.3 L 529.1 296.4 L 531.2 297.6 L 533.3 298.8 L 535.3 300.2 L 537.3 301.7 L 539.1 303.3 L 540.9 305.0 L 542.6 306.8 L 544.2 308.6 L 545.7 310.6 L 547.1 312.6 L 548.4 314.7 L 549.5 316.8 L 550.6 319.0 L 551.5 321.3 L 552.3 323.6 L 553.0 325.9 L 553.6 328.3 L 554.1 330.7 L 554.4 333.1 L 554.6 335.6 L 554.6 338.0 L 554.6 340.5 L 554.4 342.9 L 554.1 345.3 L 553.6 347.7 L 553.0 350.1 L 552.3 352.5 L 551.5 354.8 L 550.6 357.0 L 549.5 359.2 L 548.4 361.4 L 547.1 363.5 L 545.7 365.5 L 544.2 367.4 L 542.6 369.3 L 540.9 371.0 L 539.1 372.7 L 537.3 374.3 L 535.3 375.8 L 533.3 377.2 L 531.2 378.5 L 529.1 379.6 L 526.9 380.7 L 524.6 381.6 L 522.3 382.4 L 520.0 383.1 L 517.6 383.7 L 515.2 384.2 L 512.7 384.5 L 510.3 384.7 L 507.8 384.7 L 505.4 384.7 L 503.0 384.5 L 500.5 384.2 L 498.1 383.7 L 495.7 383.1 L 493.4 382.4 L 491.1 381.6 L 488.8 380.7 L 486.6 379.6 L 484.4 378.5 L 482.4 377.2 L 480.3 375.8 L 478.4 374.3 L 476.5 372.7 L 474.8 371.0 L 473.1 369.3 L 471.5 367.4 L 470.0 365.5 L 468.6 363.5 L 467.3 361.4 L 466.2 359.2 L 465.1 357.0 L 464.2 354.8 L 463.3 352.5 L 462.7 350.1 L 462.1 347.7 L 461.6 345.3 L 461.3 342.9 L 461.1 340.5 L 461.1 338.0 L 461.1 335.6 L 461.3 333.1 L 461.6 330.7 L 462.1 328.3 L 462.7 325.9 L 463.3 323.6 L 464.2 321.3 L 465.1 319.0 L 466.2 316.8 L 467.3 314.7 L 468.6 312.6 L 470.0 310.6 L 471.5 308.6 L 473.1 306.8 L 474.8 305.0 L 476.5 303.3 L 478.4 301.7 L 480.3 300.2 L 482.4 298.8 L 484.4 297.6 L 486.6 296.4 L 488.8 295.3 L 491.1 294.4 L 493.4 293.6 L 495.7 292.9 L 498.1 292.3 L 500.5 291.9 L 503.0 291.6 L 505.4 291.4 L 507.8 291.3 Z" fill="none" stroke="#EDE6D6" stroke-opacity="0.62" stroke-width="1.4" stroke-dasharray="6 7"/>
<path d="M 507.8 197.9 L 515.2 198.1 L 522.5 198.6 L 529.8 199.6 L 537.0 200.9 L 544.2 202.6 L 551.2 204.7 L 558.1 207.2 L 564.9 210.0 L 571.6 213.1 L 578.0 216.6 L 584.3 220.5 L 590.3 224.6 L 596.2 229.1 L 601.8 233.9 L 607.1 238.9 L 612.2 244.2 L 616.9 249.8 L 621.4 255.6 L 625.6 261.7 L 629.4 267.9 L 632.9 274.4 L 636.1 281.0 L 638.9 287.8 L 641.3 294.7 L 643.4 301.7 L 645.1 308.9 L 646.5 316.1 L 647.4 323.4 L 648.0 330.7 L 648.2 338.0 L 648.0 345.4 L 647.4 352.7 L 646.5 359.9 L 645.1 367.2 L 643.4 374.3 L 641.3 381.3 L 638.9 388.2 L 636.1 395.0 L 632.9 401.6 L 629.4 408.1 L 625.6 414.3 L 621.4 420.4 L 616.9 426.2 L 612.2 431.8 L 607.1 437.1 L 601.8 442.2 L 596.2 446.9 L 590.3 451.4 L 584.3 455.5 L 578.0 459.4 L 571.6 462.9 L 564.9 466.0 L 558.1 468.9 L 551.2 471.3 L 544.2 473.4 L 537.0 475.1 L 529.8 476.4 L 522.5 477.4 L 515.2 478.0 L 507.8 478.2 L 500.5 478.0 L 493.2 477.4 L 485.9 476.4 L 478.7 475.1 L 471.5 473.4 L 464.5 471.3 L 457.5 468.9 L 450.8 466.0 L 444.1 462.9 L 437.7 459.4 L 431.4 455.5 L 425.3 451.4 L 419.5 446.9 L 413.9 442.2 L 408.6 437.1 L 403.5 431.8 L 398.8 426.2 L 394.3 420.4 L 390.1 414.3 L 386.3 408.1 L 382.8 401.6 L 379.6 395.0 L 376.8 388.2 L 374.4 381.3 L 372.3 374.3 L 370.5 367.2 L 369.2 359.9 L 368.3 352.7 L 367.7 345.4 L 367.5 338.0 L 367.7 330.7 L 368.3 323.4 L 369.2 316.1 L 370.5 308.9 L 372.3 301.7 L 374.4 294.7 L 376.8 287.8 L 379.6 281.0 L 382.8 274.4 L 386.3 267.9 L 390.1 261.7 L 394.3 255.6 L 398.8 249.8 L 403.5 244.2 L 408.6 238.9 L 413.9 233.9 L 419.5 229.1 L 425.3 224.6 L 431.4 220.5 L 437.7 216.6 L 444.1 213.1 L 450.8 210.0 L 457.5 207.2 L 464.5 204.7 L 471.5 202.6 L 478.7 200.9 L 485.9 199.6 L 493.2 198.6 L 500.5 198.1 L 507.8 197.9 Z" fill="none" stroke="#EDE6D6" stroke-opacity="0.24" stroke-width="1.1" stroke-dasharray="2 9"/>
</svg>